<svg t="1694160291308" class="icon" viewBox="0 0 1024 1024" version="1.1"
  xmlns="http://www.w3.org/2000/svg" p-id="1265" width="200" height="200">
  <path d="M1001.6 496c-1.6 62.4-6.4 123.2-25.6 182.4-12.8 38.4-33.6 73.6-59.2 105.6-44.8 56-99.2 102.4-158.4 142.4-17.6 11.2-35.2 19.2-56 20.8-3.2 0-8-1.6-12.8-3.2 1.6-4.8 3.2-9.6 6.4-12.8 8-6.4 17.6-11.2 25.6-16 62.4-38.4 115.2-86.4 153.6-148.8 36.8-57.6 54.4-121.6 62.4-190.4 6.4-68.8 1.6-137.6-16-203.2-17.6-60.8-44.8-116.8-94.4-158.4-49.6-41.6-105.6-75.2-168-94.4-22.4-6.4-46.4-8-70.4-11.2-3.2 0-6.4 3.2-11.2 4.8 1.6 4.8 3.2 9.6 6.4 11.2 6.4 3.2 16 6.4 24 6.4 32 0 60.8 11.2 89.6 24 44.8 22.4 86.4 48 120 84.8 43.2 46.4 68.8 100.8 78.4 161.6 9.6 59.2 12.8 120 8 180.8-4.8 46.4-20.8 91.2-43.2 132.8-20.8 38.4-46.4 75.2-75.2 107.2-36.8 40-80 68.8-129.6 92.8-60.8 28.8-126.4 46.4-193.6 51.2-86.4 6.4-169.6-8-243.2-52.8-52.8-32-96-75.2-123.2-131.2-4.8-11.2-8-24-9.6-36.8 0-4.8 3.2-11.2 6.4-12.8 3.2-1.6 9.6 1.6 12.8 4.8 9.6 11.2 17.6 22.4 27.2 33.6 35.2 44.8 72 84.8 123.2 110.4 46.4 24 96 41.6 148.8 46.4 4.8 0 11.2 1.6 16 0 3.2 0 6.4-3.2 11.2-6.4-3.2-1.6-6.4-6.4-9.6-6.4-16-3.2-33.6-6.4-49.6-9.6-40-8-75.2-27.2-108.8-49.6-40-25.6-76.8-54.4-104-92.8-30.4-41.6-49.6-88-54.4-139.2-4.8-52.8-6.4-107.2-1.6-160 6.4-62.4 30.4-120 68.8-169.6 41.6-54.4 92.8-92.8 156.8-118.4 16-6.4 32-12.8 48-20.8 3.2-1.6 6.4-4.8 8-8-4.8-1.6-8-3.2-12.8-3.2-32 6.4-62.4 17.6-89.6 32-59.2 30.4-108.8 73.6-144 131.2-28.8 44.8-46.4 92.8-54.4 144-4.8 30.4-6.4 60.8-9.6 91.2 0 6.4 0 12.8-6.4 16-8 1.6-12.8-3.2-16-9.6-3.2-6.4-4.8-12.8-6.4-19.2-17.6-91.2 1.6-176 52.8-252.8 49.6-73.6 116.8-124.8 196.8-160 64-28.8 131.2-46.4 200-56 28.8-3.2 59.2-6.4 89.6-6.4 49.6 0 96 11.2 142.4 25.6 91.2 28.8 158.4 86.4 206.4 169.6 32 56 54.4 118.4 62.4 182.4 3.2 20.8 3.2 41.6 4.8 64z m-310.4-104h91.2c8 0 14.4-3.2 16-11.2 3.2-8 0-12.8-6.4-17.6-3.2-1.6-6.4-4.8-9.6-6.4-32-16-64-30.4-97.6-40-14.4-4.8-27.2-9.6-41.6-12.8-6.4-1.6-9.6-6.4-11.2-11.2-3.2-14.4-6.4-28.8-9.6-41.6-3.2-14.4-6.4-16-20.8-12.8-51.2 9.6-104 20.8-155.2 30.4-11.2 1.6-20.8 6.4-27.2 16-9.6 14.4-19.2 30.4-28.8 43.2-3.2 4.8-9.6 9.6-16 12.8-27.2 12.8-56 24-83.2 38.4-24 12.8-48 28.8-72 43.2-3.2 1.6-6.4 8-4.8 11.2 1.6 3.2 6.4 4.8 11.2 6.4h6.4c64-9.6 126.4-19.2 190.4-27.2 46.4-6.4 94.4-11.2 140.8-14.4 40-3.2 83.2-4.8 128-6.4zM337.6 740.8c0 3.2-1.6 4.8-1.6 8-1.6 14.4-4.8 28.8-6.4 44.8 0 6.4 1.6 14.4 9.6 16 8 3.2 16 0 20.8-8 3.2-4.8 6.4-9.6 8-14.4 4.8-16 9.6-33.6 14.4-49.6 0-1.6 1.6-6.4 3.2-6.4 12.8-4.8 27.2-9.6 41.6-14.4 0 4.8-1.6 8-1.6 9.6 0 9.6-1.6 20.8 0 30.4 0 8 6.4 11.2 14.4 9.6 11.2 0 16-9.6 19.2-19.2 3.2-14.4 6.4-28.8 9.6-44.8 1.6-6.4 3.2-12.8 11.2-16 4.8-3.2 9.6-6.4 14.4-11.2 1.6-1.6 1.6-4.8 1.6-6.4 0-1.6-4.8-1.6-6.4-1.6-3.2 0-8 1.6-12.8 3.2 1.6-8 3.2-12.8 4.8-19.2 3.2-11.2 4.8-20.8 8-32 0-3.2-1.6-9.6-3.2-9.6-3.2-1.6-8 1.6-11.2 3.2-3.2 1.6-4.8 4.8-6.4 8-8 17.6-16 36.8-25.6 54.4-1.6 3.2-3.2 6.4-4.8 8-12.8 3.2-25.6 6.4-40 9.6 4.8-14.4 9.6-27.2 12.8-40 3.2-9.6 4.8-17.6 6.4-27.2 0-3.2-1.6-9.6-3.2-9.6-1.6-1.6-8 1.6-9.6 3.2-3.2 3.2-8 6.4-9.6 11.2-11.2 20.8-24 43.2-35.2 65.6-3.2 4.8-4.8 6.4-11.2 8-9.6 1.6-17.6 3.2-25.6 8-9.6 4.8-9.6 14.4 0 20.8 0 4.8 8 6.4 14.4 8z m377.6-214.4c9.6 8 22.4 6.4 36.8 3.2 6.4-1.6 14.4-3.2 14.4-11.2 0-8-9.6-8-16-9.6-8-1.6-9.6-4.8-8-11.2 1.6-8 4.8-14.4 6.4-22.4 3.2-12.8-1.6-17.6-14.4-14.4h-4.8c-28.8-1.6-52.8 9.6-72 28.8-12.8 12.8-24 27.2-17.6 48-17.6 6.4-35.2 3.2-54.4-1.6 12.8-14.4 27.2-27.2 40-40 4.8-4.8 9.6-9.6 11.2-16 4.8-9.6 1.6-17.6-8-19.2-8-1.6-17.6-1.6-27.2 0-16 1.6-32 4.8-49.6 6.4-6.4 0-12.8 1.6-14.4 8-1.6 6.4 1.6 12.8 8 16 3.2 1.6 8 3.2 11.2 3.2 11.2 0 22.4-1.6 35.2-1.6-3.2 3.2-4.8 4.8-8 6.4-14.4 12.8-30.4 25.6-44.8 40-4.8 4.8-9.6 12.8-11.2 20.8-1.6 6.4 1.6 9.6 9.6 9.6 19.2-1.6 40-1.6 59.2-3.2 11.2-1.6 24-1.6 33.6-6.4 11.2-6.4 24-9.6 36.8-11.2 17.6-4.8 32-14.4 48-22.4z m-435.2-25.6c-27.2 40-44.8 83.2-56 129.6-3.2 12.8-3.2 27.2-4.8 40 0 3.2 3.2 8 6.4 9.6 3.2 1.6 6.4-1.6 9.6-3.2 1.6-1.6 3.2-3.2 4.8-6.4 6.4-11.2 11.2-22.4 17.6-35.2 8-19.2 16-38.4 22.4-56 8 1.6 14.4 3.2 19.2 1.6 27.2-3.2 49.6-14.4 67.2-36.8 19.2-25.6 14.4-54.4-9.6-72-22.4-16-68.8-14.4-89.6 4.8-3.2 3.2-6.4 8-8 12.8-1.6 8 3.2 12.8 9.6 11.2h11.2z m212.8 16c-17.6 17.6-35.2 33.6-52.8 49.6-6.4 6.4-12.8 14.4-17.6 22.4-3.2 4.8-4.8 12.8 0 19.2 4.8 6.4 11.2 4.8 17.6 3.2 28.8-9.6 59.2-11.2 89.6-11.2H560c16-1.6 32-4.8 44.8-14.4 3.2-1.6 6.4-8 6.4-11.2-1.6-6.4-8-3.2-11.2-1.6-14.4 4.8-30.4 6.4-44.8 4.8-17.6-1.6-36.8-3.2-56-4.8-4.8 0-11.2 1.6-19.2 1.6 12.8-12.8 24-24 33.6-35.2 8-9.6 16-20.8 22.4-32 6.4-11.2 0-19.2-12.8-17.6-24 1.6-48 3.2-72 6.4-3.2 0-9.6 4.8-9.6 8s1.6 9.6 4.8 11.2c3.2 3.2 9.6 3.2 14.4 3.2 8 0 19.2 0 32-1.6z m180.8 97.6c3.2-8 4.8-12.8 8-19.2 1.6-6.4 1.6-12.8-4.8-14.4-3.2-1.6-9.6 1.6-12.8 4.8-4.8 4.8-9.6 11.2-12.8 17.6-8 17.6-19.2 25.6-38.4 20.8-6.4-1.6-12.8 3.2-12.8 9.6-1.6 6.4 3.2 11.2 9.6 12.8 4.8 1.6 9.6 1.6 16 3.2-3.2 12.8-8 25.6-9.6 38.4-1.6 16-1.6 32-1.6 48 0 3.2 3.2 4.8 6.4 8 3.2-1.6 4.8-4.8 6.4-6.4 1.6-1.6 1.6-4.8 3.2-6.4 8-22.4 17.6-44.8 24-68.8 4.8-14.4 11.2-20.8 25.6-25.6 19.2-6.4 36.8-14.4 54.4-22.4 3.2-1.6 4.8-4.8 6.4-8-3.2-1.6-6.4-3.2-9.6-3.2-6.4 0-12.8 3.2-19.2 3.2-12.8 3.2-24 4.8-38.4 8z m-145.6 80v-28.8c0-6.4-3.2-14.4-11.2-16-6.4-1.6-14.4 1.6-20.8 3.2-4.8 1.6-4.8 6.4 0 8 8 3.2 4.8 8 3.2 14.4-3.2 11.2-6.4 24-8 36.8-1.6 12.8 9.6 20.8 20.8 17.6 8-1.6 17.6-4.8 24-11.2 8-6.4 16-14.4 24-22.4 0 1.6 1.6 3.2 1.6 4.8 4.8 6.4 11.2 14.4 17.6 20.8 1.6 1.6 6.4 1.6 9.6 0 1.6 0 1.6-4.8 1.6-8 0-9.6-1.6-19.2 0-28.8 1.6-14.4 3.2-27.2 4.8-41.6 0-3.2-3.2-9.6-4.8-9.6-3.2-1.6-8 1.6-11.2 3.2-3.2 3.2-4.8 6.4-8 11.2-9.6 20.8-25.6 35.2-43.2 46.4z m-96-177.6s-1.6 0-1.6-1.6c0-4.8-1.6-8-3.2-12.8-1.6-3.2-3.2-6.4-6.4-6.4s-6.4 1.6-8 3.2c-11.2 16-20.8 30.4-30.4 46.4-8 12.8-12.8 25.6-11.2 40 1.6 6.4 4.8 14.4 8 19.2 1.6 3.2 8 3.2 12.8 3.2 3.2 0 4.8-6.4 6.4-9.6 1.6-3.2 1.6-6.4 3.2-9.6 4.8-11.2 11.2-22.4 16-33.6 4.8-11.2 9.6-25.6 14.4-38.4z m-22.4-44.8c1.6 9.6 8 16 17.6 11.2 4.8-1.6 9.6-4.8 12.8-9.6 9.6-12.8 19.2-25.6 27.2-40 1.6-1.6 1.6-8 1.6-8-1.6-1.6-6.4-3.2-9.6-1.6-17.6 4.8-33.6 16-43.2 32-3.2 6.4-4.8 11.2-6.4 16z" fill="#EF3B43" p-id="1266"></path>
  <path d="M24 630.4c0-4.8 0-9.6 1.6-14.4 1.6-8 6.4-16 14.4-17.6 9.6-1.6 19.2-1.6 24 8 4.8 9.6 8 20.8 11.2 30.4 3.2 16 3.2 32 4.8 48 1.6 8-4.8 14.4-12.8 14.4-16 0-30.4-9.6-33.6-24-4.8-14.4-8-30.4-9.6-44.8z" fill="#EF3B43" p-id="1267"></path>
  <path d="M691.2 392c-43.2 1.6-86.4 3.2-129.6 6.4-46.4 3.2-94.4 9.6-140.8 14.4-64 8-126.4 17.6-190.4 27.2-1.6 0-4.8 1.6-6.4 0-3.2-1.6-9.6-3.2-11.2-6.4-1.6-3.2 1.6-9.6 4.8-11.2 24-14.4 46.4-30.4 72-43.2 27.2-14.4 56-25.6 83.2-38.4 6.4-3.2 11.2-8 16-12.8 11.2-14.4 20.8-28.8 28.8-43.2 6.4-11.2 14.4-14.4 27.2-16 51.2-9.6 104-20.8 155.2-30.4 14.4-3.2 17.6 0 20.8 12.8 3.2 14.4 6.4 28.8 9.6 41.6 1.6 6.4 4.8 9.6 11.2 11.2 14.4 4.8 28.8 9.6 41.6 12.8 33.6 9.6 65.6 24 97.6 40 3.2 1.6 6.4 3.2 9.6 6.4 6.4 4.8 9.6 9.6 6.4 17.6-3.2 8-9.6 11.2-16 11.2h-89.6zM337.6 740.8c-8-3.2-14.4-3.2-20.8-8-9.6-4.8-9.6-16 0-20.8 8-3.2 17.6-6.4 25.6-8 4.8-1.6 8-3.2 11.2-8 11.2-22.4 22.4-43.2 35.2-65.6 1.6-4.8 6.4-8 9.6-11.2 3.2-1.6 8-4.8 9.6-3.2 3.2 1.6 4.8 6.4 3.2 9.6-1.6 9.6-3.2 19.2-6.4 27.2-3.2 12.8-8 25.6-12.8 40 14.4-3.2 27.2-6.4 40-9.6 1.6 0 3.2-4.8 4.8-8 8-17.6 16-36.8 25.6-54.4 1.6-3.2 3.2-6.4 6.4-8 3.2-1.6 8-4.8 11.2-3.2 1.6 0 3.2 6.4 3.2 9.6-1.6 11.2-4.8 20.8-8 32-1.6 6.4-3.2 11.2-4.8 19.2 4.8-1.6 8-3.2 12.8-3.2 1.6 0 6.4 0 6.4 1.6 1.6 1.6 0 4.8-1.6 6.4-4.8 3.2-8 8-14.4 11.2-6.4 3.2-9.6 8-11.2 16-3.2 14.4-4.8 30.4-9.6 44.8-3.2 9.6-8 17.6-19.2 19.2-8 0-12.8-3.2-14.4-9.6v-30.4c0-3.2 0-6.4 1.6-9.6-14.4 4.8-28.8 9.6-41.6 14.4-1.6 0-3.2 3.2-3.2 6.4-4.8 16-8 33.6-14.4 49.6-1.6 4.8-4.8 9.6-8 14.4-4.8 8-12.8 9.6-20.8 8-8-3.2-9.6-9.6-9.6-16 1.6-14.4 4.8-30.4 6.4-44.8 6.4-3.2 8-4.8 8-8zM715.2 526.4c-16 8-30.4 16-44.8 19.2-12.8 1.6-25.6 6.4-36.8 11.2-9.6 4.8-22.4 6.4-33.6 6.4-19.2 1.6-40 3.2-59.2 3.2-6.4 0-11.2-3.2-9.6-9.6 3.2-8 6.4-14.4 11.2-20.8 14.4-14.4 30.4-27.2 44.8-40 1.6-1.6 4.8-4.8 8-6.4-12.8 1.6-24 1.6-35.2 1.6-3.2 0-8-1.6-11.2-3.2-6.4-3.2-9.6-8-8-16 1.6-8 8-8 14.4-8 16-1.6 32-4.8 49.6-6.4 8-1.6 17.6-1.6 27.2 0 9.6 1.6 12.8 11.2 8 19.2-3.2 6.4-8 11.2-11.2 16-12.8 12.8-27.2 25.6-40 40 17.6 3.2 35.2 8 54.4 1.6-6.4-20.8 3.2-35.2 17.6-48 20.8-19.2 43.2-32 72-28.8h4.8c12.8-1.6 17.6 3.2 14.4 14.4-1.6 8-4.8 14.4-6.4 22.4-1.6 6.4 1.6 11.2 8 11.2 6.4 1.6 16 0 16 9.6 0 8-8 9.6-14.4 11.2-17.6 8-30.4 8-40 0z m-40-11.2c22.4-1.6 33.6-11.2 36.8-30.4-16 4.8-28.8 12.8-36.8 30.4zM280 500.8c-3.2 0-6.4 1.6-9.6 1.6-8 0-12.8-4.8-9.6-11.2 1.6-4.8 4.8-9.6 8-12.8 20.8-19.2 67.2-20.8 89.6-4.8 24 17.6 28.8 48 9.6 72-16 22.4-40 33.6-67.2 36.8-6.4 0-12.8-1.6-19.2-1.6-6.4 17.6-14.4 36.8-22.4 56-4.8 11.2-11.2 24-17.6 35.2-1.6 0-1.6 3.2-4.8 3.2-3.2 1.6-8 4.8-9.6 3.2-3.2-1.6-6.4-6.4-6.4-9.6 0-12.8 1.6-27.2 4.8-40 11.2-44.8 27.2-88 54.4-128z m28.8-6.4c-8 27.2-16 52.8-24 78.4 6.4-1.6 11.2-3.2 16-6.4 16-6.4 32-16 41.6-32 6.4-12.8 3.2-25.6-9.6-32-8-3.2-16-4.8-24-8z" fill="#FFFFFF" p-id="1268"></path>
  <path d="M492.8 516.8c-12.8 0-22.4 1.6-33.6 1.6-4.8 0-9.6-1.6-14.4-3.2-3.2-1.6-6.4-8-4.8-11.2 0-3.2 6.4-8 9.6-8 24-3.2 48-4.8 72-6.4 12.8-1.6 19.2 6.4 12.8 17.6-6.4 11.2-14.4 22.4-22.4 32-9.6 11.2-22.4 22.4-33.6 35.2 8 0 12.8-1.6 19.2-1.6 19.2 1.6 36.8 1.6 56 4.8 16 1.6 30.4 0 44.8-4.8 4.8-1.6 9.6-4.8 11.2 1.6 1.6 3.2-3.2 8-6.4 11.2-12.8 9.6-28.8 12.8-44.8 14.4H528c-30.4 0-60.8 1.6-89.6 11.2-6.4 1.6-12.8 3.2-17.6-3.2-4.8-6.4-3.2-12.8 0-19.2 4.8-8 11.2-16 17.6-22.4 17.6-16 35.2-32 54.4-49.6zM673.6 614.4c12.8-3.2 25.6-4.8 36.8-8 6.4-1.6 12.8-3.2 19.2-3.2 3.2 0 6.4 1.6 9.6 3.2-1.6 3.2-3.2 6.4-6.4 8-17.6 8-35.2 16-54.4 22.4-12.8 4.8-20.8 11.2-25.6 25.6-6.4 24-16 46.4-24 68.8-1.6 3.2-1.6 4.8-3.2 6.4-1.6 3.2-4.8 4.8-6.4 6.4-1.6-3.2-6.4-4.8-6.4-8 0-16 0-32 1.6-48 1.6-12.8 6.4-25.6 9.6-38.4-4.8-1.6-11.2-1.6-16-3.2-6.4-1.6-11.2-6.4-9.6-12.8 1.6-6.4 6.4-11.2 12.8-9.6 19.2 3.2 30.4-4.8 38.4-20.8 3.2-6.4 8-12.8 12.8-17.6 3.2-3.2 9.6-4.8 12.8-4.8 6.4 1.6 6.4 8 4.8 14.4 0 6.4-3.2 11.2-6.4 19.2zM528 694.4c17.6-11.2 33.6-25.6 44.8-44.8 1.6-3.2 4.8-8 8-11.2 3.2-1.6 8-4.8 11.2-3.2 3.2 0 4.8 6.4 4.8 9.6-1.6 14.4-3.2 27.2-4.8 41.6v28.8c0 3.2 0 6.4-1.6 8-3.2 1.6-8 1.6-9.6 0-6.4-6.4-11.2-14.4-17.6-20.8-1.6-1.6-1.6-3.2-1.6-4.8-8 8-16 16-24 22.4-6.4 4.8-16 8-24 11.2-12.8 3.2-22.4-4.8-20.8-17.6 1.6-12.8 4.8-24 8-36.8 1.6-4.8 4.8-9.6-3.2-14.4-3.2-1.6-3.2-6.4 0-8 6.4-1.6 14.4-3.2 20.8-3.2 6.4 1.6 9.6 8 11.2 16-1.6 8-1.6 17.6-1.6 27.2zM432 516.8c-4.8 14.4-9.6 28.8-14.4 41.6-4.8 11.2-11.2 22.4-16 33.6-1.6 3.2-1.6 6.4-3.2 9.6-1.6 3.2-3.2 8-6.4 9.6-3.2 1.6-9.6 0-12.8-3.2-4.8-4.8-6.4-12.8-8-19.2-1.6-14.4 3.2-27.2 11.2-40 9.6-16 20.8-32 30.4-46.4 1.6-1.6 4.8-4.8 8-3.2 1.6 0 4.8 3.2 6.4 6.4 1.6 3.2 1.6 8 3.2 12.8 0-3.2 0-3.2 1.6-1.6zM409.6 472c1.6-4.8 3.2-11.2 6.4-16 9.6-16 24-25.6 43.2-32 3.2-1.6 6.4 0 9.6 1.6 1.6 1.6 0 6.4-1.6 8-8 12.8-17.6 27.2-27.2 40-3.2 3.2-8 8-12.8 9.6-8 4.8-16 0-17.6-11.2z" fill="#FFFFFF" p-id="1269"></path>
  <path d="M675.2 515.2c8-17.6 20.8-24 36.8-30.4-3.2 19.2-14.4 28.8-36.8 30.4zM308.8 494.4c8 1.6 16 3.2 24 8 12.8 6.4 16 19.2 9.6 32-9.6 17.6-24 25.6-41.6 32-4.8 1.6-11.2 3.2-16 6.4 8-25.6 16-49.6 24-78.4z" fill="#EF3B43" p-id="1270"></path>
</svg>