<svg t="1694160232662" class="icon" viewBox="0 0 1024 1024" version="1.1"
  xmlns="http://www.w3.org/2000/svg" p-id="978" width="200" height="200">
  <path d="M511.488 976.384c-256 0-464.384-208.384-464.384-464.384S255.488 47.616 511.488 47.616 975.872 256 975.872 512s-208.384 464.384-464.384 464.384z" fill="#FFFFFF" p-id="979"></path>
  <path d="M511.488 78.336c239.616 0 433.664 194.048 433.664 433.664s-194.048 433.664-433.664 433.664-433.152-194.048-433.152-433.664 194.048-433.664 433.152-433.664m0-61.44C238.592 16.896 16.896 239.104 16.896 512s222.208 495.104 495.104 495.104 495.104-222.208 495.104-495.104S784.896 16.896 511.488 16.896z" fill="#CE0823" p-id="980"></path>
  <path d="M817.664 406.528c-52.736-1.024-95.232 13.824-124.928 36.352-30.72 23.04-47.616 53.76-47.616 84.992 0 46.08 37.376 90.112 123.392 89.6 21.504 0 39.936-2.048 57.344-5.12 5.12-1.024 9.728-1.536 14.848-2.56l10.24-43.008c-16.896 5.632-37.376 10.24-54.784 10.24-45.568 0.512-76.288-27.136-76.288-62.464 0-18.944 7.68-35.84 22.016-47.616 14.848-13.312 37.376-20.992 65.536-20.992 22.016 0 34.816 6.144 43.52 14.848l4.608 5.12h7.168l14.336-50.176c-15.36-5.12-36.864-9.216-59.392-9.216z m-156.672 2.048H475.136l-2.56 10.752-0.512 2.56s20.48 2.048 14.336 22.528l-46.592 168.448H532.48l3.584-14.336s-17.408-4.608-12.8-20.48c0.512-1.024 6.656-25.088 10.752-39.424 1.536-6.144 3.072-10.752 3.072-10.752h42.496c7.168 0 12.288 1.024 16.384 3.072 8.192 3.072 11.776 8.192 11.776 8.192l12.288-50.176h-71.68l7.68-28.672 3.072-10.752h61.952c6.144 0 11.264 2.048 14.848 5.12l4.608 8.192h7.168l13.312-54.272z m-206.848 13.312l3.584-13.312H349.184l-2.56 10.752-0.512 2.56c7.168 0.512 17.92 7.168 9.216 14.848l-87.04 66.56 0.512-2.048L286.72 436.224c4.096-12.8 17.92-14.336 17.92-14.336l3.584-13.312H204.8l-2.56 10.752-0.512 2.56c5.12 1.024 18.944 4.096 14.336 22.528-34.304 124.928-30.72 112.64-32.768 119.296-7.68 29.696-19.456 33.792-26.112 34.304H153.6l-1.536 5.632-2.048 8.704H256l3.584-14.336s-16.896-3.584-13.824-15.872c1.536-6.144 6.144-22.016 9.728-36.352 3.584-13.312 7.168-25.6 7.168-25.6 18.944 30.208 23.04 33.792 45.568 65.024 20.992 28.672 43.008 27.136 97.28 27.136h13.824l3.584-14.336c-13.824 0-22.528-9.728-28.16-15.872C389.12 576 341.504 501.76 341.504 501.76l84.48-66.56 2.56-2.048c3.584-3.072 7.168-5.632 10.24-7.168 9.728-5.12 15.36-4.096 15.36-4.096z" fill="#CE0823" p-id="981"></path>
</svg>