<svg t="1694160306417" class="icon" viewBox="0 0 1024 1024" version="1.1"
  xmlns="http://www.w3.org/2000/svg" p-id="1411" width="200" height="200">
  <path d="M28.8 502.4a486.4 484.8 90 1 0 969.6 0 486.4 484.8 90 1 0-969.6 0Z" fill="#FFFFFF" p-id="1412"></path>
  <path d="M57.6 500.8c0-169.6 99.2-336 254.4-409.6C465.6 17.6 646.4 33.6 784 132.8c73.6 54.4 124.8 131.2 158.4 214.4 32 80 28.8 166.4 14.4 248-14.4 86.4-68.8 172.8-131.2 233.6-33.6 32-73.6 59.2-115.2 80-19.2 9.6-40 17.6-60.8 24-16 4.8-38.4 14.4-56 14.4-132.8 20.8-283.2-11.2-382.4-105.6-97.6-89.6-153.6-208-153.6-340.8z m456-283.2c-84.8-6.4-172.8 41.6-224 108.8-52.8 68.8-67.2 150.4-52.8 233.6 16 86.4 84.8 164.8 164.8 196.8 80 32 171.2 27.2 246.4-14.4 113.6-62.4 168-196.8 132.8-320-30.4-120-144-204.8-267.2-204.8-12.8-1.6 4.8 0 0 0z m-1.6-28.8c14.4 0 33.6 3.2 46.4-6.4 12.8-9.6 16-27.2 6.4-40-4.8-8-14.4-9.6-6.4-17.6 6.4-8 8-17.6 4.8-28.8-4.8-17.6-27.2-19.2-43.2-19.2-17.6 0-35.2 1.6-54.4 1.6-8 0-1.6 36.8-1.6 44.8 0 19.2 1.6 38.4 3.2 59.2 0 11.2 3.2 8 12.8 8 11.2-1.6 22.4-1.6 32-1.6z m-48 1.6c-4.8-6.4-40-32-36.8-36.8 11.2-17.6 6.4-43.2-12.8-52.8-17.6-8-38.4-1.6-56 4.8-12.8 4.8-24 11.2-35.2 17.6-3.2 0 6.4 20.8 9.6 24l24 57.6c1.6 4.8 4.8 11.2 6.4 16 3.2 6.4 6.4 1.6 11.2 0 4.8-3.2 25.6-9.6 22.4-17.6-3.2-6.4-14.4-22.4-6.4-25.6 9.6-4.8 17.6 4.8 25.6 11.2 9.6 6.4 11.2 11.2 22.4 8 6.4 0 20.8-1.6 25.6-6.4 0-1.6 0 0 0 0z m-104 36.8c-16-9.6-32-19.2-48-30.4l-28.8-19.2c-6.4-3.2-19.2-16-25.6-16-4.8 0-12.8 9.6-17.6 12.8-8 6.4-16 12.8-22.4 19.2-6.4 4.8 16 46.4 19.2 54.4 8 19.2 16 40 24 59.2 1.6 4.8 14.4-12.8 16-14.4 8-9.6 11.2-11.2 6.4-22.4-3.2-6.4-8-11.2-1.6-16 6.4-4.8 16-17.6 24-19.2 11.2-1.6 16 14.4 28.8 8 9.6-4.8 19.2-9.6 25.6-16 0-1.6 0 0 0 0z m38.4 595.2c0-36.8-28.8-51.2-60.8-59.2-30.4 0-56 20.8-60.8 51.2-8 33.6 27.2 62.4 57.6 65.6 33.6 6.4 64-24 64-57.6z m180.8-654.4c0 22.4 19.2 36.8 38.4 43.2 9.6 3.2 20.8 4.8 32 4.8 14.4-1.6 22.4-8 28.8-20.8 6.4-11.2 11.2-22.4 16-33.6 3.2-9.6 14.4-25.6 14.4-35.2 1.6-3.2-22.4-12.8-25.6-14.4-14.4-6.4-14.4 12.8-17.6 22.4-6.4 14.4-20.8 67.2-44.8 43.2-6.4-6.4-1.6-17.6 1.6-25.6 4.8-14.4 9.6-27.2 14.4-40 1.6-3.2 6.4-11.2 4.8-14.4-1.6-1.6-12.8-3.2-14.4-3.2-9.6-3.2-19.2-11.2-24 0-9.6 22.4-24 49.6-24 73.6z m249.6 113.6c6.4-9.6 19.2-14.4 27.2-22.4 4.8-4.8-11.2-20.8-14.4-24-8-11.2-14.4 0-22.4 6.4-9.6 6.4-19.2 14.4-28.8 20.8-9.6 6.4-19.2 14.4-28.8 22.4-4.8 3.2-8 6.4-12.8 11.2-3.2 3.2 4.8 11.2 6.4 14.4l9.6 14.4c3.2 3.2 9.6-3.2 12.8-4.8 4.8-3.2 19.2-19.2 25.6-17.6-6.4 11.2-12.8 22.4-17.6 33.6-8 14.4 0 24 8 36.8 1.6 1.6 4.8 11.2 8 4.8 3.2-4.8 6.4-11.2 9.6-16 6.4-12.8 16-25.6 22.4-38.4 3.2-6.4 25.6-1.6 32-1.6 3.2 1.6 27.2 3.2 27.2 0-1.6-6.4-11.2-27.2-17.6-30.4-12.8-11.2-32-3.2-46.4-9.6 0-1.6 1.6 1.6 0 0zM217.6 400c0-25.6-22.4-49.6-48-38.4-11.2 4.8-14.4 14.4-20.8 24-3.2 4.8-14.4 24-20.8 12.8-6.4-9.6 1.6-24 8-32 1.6-1.6 9.6-9.6 8-11.2-3.2-4.8-11.2-8-16-12.8-4.8-4.8-19.2 20.8-19.2 24-4.8 11.2-6.4 22.4-6.4 35.2 1.6 22.4 20.8 43.2 44.8 33.6 11.2-3.2 17.6-12.8 24-24 3.2-6.4 16-24 20.8-9.6 3.2 11.2-3.2 24-11.2 32-1.6 1.6-11.2 8-11.2 11.2 0 3.2 11.2 8 12.8 8 11.2 6.4 17.6-1.6 24-11.2 6.4-12.8 9.6-25.6 11.2-41.6 0-8-1.6 8 0 0z m430.4 404.8c11.2-6.4 22.4-11.2 33.6-16 3.2-1.6 9.6-3.2 8-8-3.2-4.8-4.8-9.6-8-14.4-4.8-6.4-57.6 25.6-65.6 28.8-11.2 4.8-4.8 11.2 0 20.8l14.4 38.4 14.4 38.4c1.6 4.8 3.2 8 8 4.8 6.4-3.2 12.8-4.8 17.6-6.4 12.8-4.8 24-11.2 36.8-17.6 6.4-3.2 14.4-8 20.8-11.2-1.6-4.8-4.8-9.6-6.4-14.4-4.8-9.6-9.6-4.8-19.2-1.6-4.8 1.6-28.8 16-32 9.6-1.6-4.8-3.2-9.6-4.8-12.8-1.6-4.8 9.6-8 12.8-9.6 9.6-3.2 28.8-8 19.2-19.2-6.4-16-16-6.4-28.8-1.6-3.2 1.6-12.8 8-16 3.2 0-1.6-4.8-6.4-4.8-11.2 6.4-3.2 0 1.6 0 0z m94.4-38.4c-8-6.4-14.4-12.8-4.8-19.2 4.8-3.2 28.8-20.8 28.8-27.2 0-3.2-8-8-9.6-9.6-6.4-6.4-6.4-6.4-12.8 0-9.6 9.6-20.8 19.2-30.4 28.8-4.8 3.2-24 16-20.8 22.4 8 9.6 16 20.8 24 30.4 4.8 6.4 38.4 56 44.8 51.2 20.8-17.6 44.8-33.6 62.4-54.4 3.2-3.2-11.2-19.2-14.4-19.2-8 0-25.6 19.2-32 25.6-3.2 1.6-6.4 6.4-8 3.2-1.6-3.2-9.6-9.6-9.6-14.4 1.6-11.2 27.2-16 28.8-25.6 0-3.2-12.8-19.2-16-16-9.6 8-20.8 16-30.4 24-3.2-3.2 3.2-3.2 0 0z m144-380.8c9.6-3.2 16 8 17.6 16 1.6 6.4 1.6 12.8 0 20.8-1.6 6.4 0 8 6.4 8 3.2 0 11.2 1.6 14.4 1.6 3.2-1.6 3.2-12.8 3.2-17.6 0-12.8-3.2-25.6-8-36.8-9.6-19.2-36.8-35.2-56-19.2-9.6 9.6-12.8 20.8-11.2 35.2 0 6.4 3.2 27.2-9.6 24-9.6-1.6-12.8-19.2-11.2-27.2 0-4.8 1.6-9.6 3.2-14.4 1.6-8 0-8-6.4-8-14.4 0-16 1.6-19.2 16-1.6 14.4 0 28.8 8 41.6 8 19.2 32 35.2 51.2 24 9.6-6.4 17.6-17.6 17.6-30.4-4.8-8-8-24 0-33.6 6.4-1.6-4.8 6.4 0 0zM446.4 852.8c0-9.6 0-17.6 9.6-17.6 8 1.6 22.4 1.6 30.4 4.8 3.2 0 6.4 1.6 9.6 1.6 3.2 0 3.2-14.4 4.8-17.6 0-3.2 0-8 1.6-9.6-6.4 0-11.2-1.6-17.6-3.2-11.2-1.6-24-4.8-35.2-6.4-3.2 0-22.4-6.4-25.6-4.8-4.8 3.2-6.4 22.4-8 28.8-1.6 9.6-4.8 19.2-6.4 28.8-1.6 11.2-6.4 20.8-8 32 0 3.2-1.6 8-3.2 11.2-3.2 8 1.6 8 8 9.6 4.8 1.6 22.4 8 25.6 4.8 4.8-3.2 6.4-22.4 8-28.8 3.2-11.2 11.2-4.8 20.8-3.2 3.2 0 8 1.6 11.2 1.6 8 0 9.6 4.8 11.2-4.8 1.6-8 6.4-19.2-3.2-20.8-9.6-1.6-22.4-3.2-33.6-6.4 0-1.6 6.4 1.6 0 0z m147.2-49.6c-19.2 0-40 4.8-59.2 8-4.8 0-20.8 0-20.8 4.8 0 11.2 1.6 22.4 3.2 32 1.6 22.4 4.8 46.4 3.2 70.4 0 8 11.2 4.8 16 4.8 9.6 0 22.4 1.6 20.8-11.2 0-4.8-4.8-24 0-28.8 4.8-4.8 27.2-3.2 33.6-4.8 11.2-1.6 6.4-8 4.8-17.6-3.2-12.8-6.4-9.6-17.6-8-6.4 0-19.2 6.4-24 1.6-1.6-1.6-1.6-9.6-1.6-12.8 0-8 4.8-6.4 12.8-6.4l28.8-4.8c6.4-1.6 6.4 0 4.8-6.4-1.6-6.4-3.2-12.8-4.8-20.8 0 0 1.6 9.6 0 0z m168-544c-17.6-6.4-32-9.6-36.8-30.4-4.8-19.2 20.8-38.4 38.4-33.6 8 1.6 16 9.6 20.8 16 1.6 3.2 3.2 8 4.8 12.8 3.2 8 9.6 0 14.4-3.2 9.6-4.8 9.6-6.4 6.4-16-4.8-11.2-11.2-22.4-20.8-28.8-36.8-30.4-89.6-9.6-96 36.8-3.2 22.4 8 44.8 27.2 56 8 6.4 17.6 8 27.2 11.2 4.8 0 12.8-17.6 14.4-20.8-1.6 0-1.6 3.2 0 0z m-496 536c-17.6 0-38.4-11.2-38.4-30.4s19.2-38.4 40-32c9.6 3.2 16 9.6 19.2 17.6 1.6 3.2 1.6 11.2 6.4 8 4.8-1.6 8-3.2 12.8-6.4 19.2-9.6-16-41.6-25.6-46.4-40-22.4-91.2 8-84.8 56 3.2 19.2 11.2 35.2 27.2 44.8 9.6 6.4 20.8 6.4 30.4 9.6 6.4 1.6 11.2-16 12.8-20.8-1.6 0-1.6 4.8 0 0z m-96-486.4c16 8 30.4 17.6 44.8 27.2 8 4.8 14.4 9.6 20.8 14.4 6.4 3.2 12.8-11.2 16-16 4.8-8 8-11.2 0-17.6-6.4-4.8-14.4-8-20.8-12.8-8-4.8-16-9.6-22.4-16-8-6.4-19.2-8-12.8-19.2 3.2-3.2 12.8-16 11.2-20.8 0-4.8-16-11.2-19.2-12.8-8-4.8-27.2 33.6-30.4 40l-14.4 24c-6.4 9.6-14.4 16-3.2 22.4 3.2 1.6 12.8 12.8 17.6 8 4.8-4.8 8-12.8 12.8-20.8 1.6 0-1.6 3.2 0 0z m728 323.2c3.2-9.6-6.4-22.4-6.4-32 0-9.6 20.8-14.4 25.6-24 0-1.6-28.8-1.6-32-1.6-3.2 0-11.2-25.6-12.8-30.4-4.8 8-8 17.6-11.2 25.6-4.8 9.6-25.6 4.8-36.8 4.8 1.6 9.6 27.2 16 25.6 24-3.2 9.6-6.4 20.8-8 30.4 11.2-3.2 17.6-12.8 28.8-16 4.8 0 22.4 16 27.2 19.2 0-1.6-8-6.4 0 0z m-772.8-1.6c6.4-4.8 20.8-17.6 28.8-16 9.6 0 17.6 17.6 27.2 16 0-9.6-3.2-20.8-6.4-28.8-1.6-6.4 20.8-20.8 25.6-25.6-9.6-3.2-22.4-1.6-33.6-1.6-6.4 0-8-27.2-12.8-30.4-4.8 9.6-8 20.8-11.2 30.4-3.2 4.8-32 1.6-35.2 1.6 4.8 8 17.6 14.4 24 20.8 4.8 3.2-6.4 28.8-6.4 33.6 1.6-1.6 0-1.6 0 0z" fill="#005536" p-id="1413"></path>
  <path d="M636.8 628.8c6.4 4.8 11.2 9.6 17.6 14.4 4.8 3.2 9.6 6.4 14.4 8 4.8 1.6 9.6 3.2 14.4 3.2 1.6 0 3.2 0 3.2-1.6 1.6-3.2 1.6-4.8 3.2-8s1.6-4.8 4.8-6.4h3.2l9.6 4.8c4.8 1.6 9.6 4.8 14.4 6.4 1.6 0 1.6 1.6 1.6 1.6-1.6 4.8-4.8 9.6-8 12.8-1.6 1.6-1.6 1.6-4.8 1.6-3.2-1.6-4.8-3.2-8-3.2-1.6 0-3.2-1.6-3.2-1.6-3.2-1.6-6.4-1.6-11.2-1.6h-1.6c-3.2 3.2-4.8 4.8-4.8 9.6v1.6c1.6 0 3.2 1.6 6.4 1.6 4.8 1.6 8 3.2 11.2 4.8 1.6 1.6 1.6 1.6 0 3.2-3.2 4.8-6.4 8-9.6 11.2-1.6 1.6-4.8 1.6-6.4 0-3.2-1.6-6.4-3.2-9.6-3.2-1.6-1.6-3.2 0-4.8 1.6-1.6 1.6-3.2 3.2-3.2 4.8-1.6 3.2-1.6 4.8 1.6 6.4 1.6 1.6 4.8 3.2 6.4 3.2 1.6 1.6 1.6 1.6 0 3.2 0 1.6-1.6 1.6-1.6 3.2-6.4 4.8-11.2 9.6-17.6 12.8h-1.6c-3.2 1.6-3.2 1.6-4.8-1.6-1.6-4.8-4.8-9.6-8-14.4-4.8-8-9.6-14.4-14.4-22.4-3.2-4.8-6.4-11.2-8-17.6-1.6-3.2-1.6-8-1.6-11.2v-3.2c-3.2 1.6-3.2 4.8-3.2 6.4-1.6 6.4 0 12.8 0 17.6 0 3.2 1.6 4.8 3.2 8 3.2 6.4 8 11.2 11.2 17.6 4.8 6.4 8 14.4 11.2 22.4 1.6 1.6 1.6 4.8 0 6.4 0 1.6-1.6 3.2-3.2 3.2-3.2 1.6-6.4 3.2-9.6 3.2H624V736c-1.6-8-3.2-16-8-24-4.8-6.4-8-12.8-12.8-20.8-3.2-4.8-6.4-11.2-8-17.6-1.6-4.8-1.6-9.6-1.6-14.4 1.6-4.8 1.6-9.6 4.8-12.8 3.2-3.2 4.8-8 8-11.2 4.8-6.4 9.6-12.8 14.4-20.8 3.2-4.8 8-11.2 8-17.6 1.6-6.4 1.6-12.8 0-17.6-3.2-8-8-16-11.2-22.4-4.8-8-11.2-14.4-14.4-22.4-3.2-8-4.8-14.4-4.8-22.4 0-3.2 1.6-4.8 1.6-8 1.6-3.2 1.6-4.8 1.6-8 1.6-3.2 1.6-8 3.2-11.2 1.6-4.8 1.6-8 3.2-12.8 1.6-3.2 1.6-4.8 1.6-8s0-6.4 1.6-9.6c1.6-4.8 0-9.6 0-14.4 0-3.2-1.6-6.4-3.2-9.6-1.6-3.2-3.2-8-4.8-11.2-3.2-8-8-14.4-14.4-19.2-1.6-1.6-3.2-1.6-3.2-3.2 0 0-1.6 0-3.2-1.6 1.6 3.2 3.2 4.8 4.8 8 3.2 4.8 6.4 11.2 8 17.6 1.6 6.4 3.2 12.8 4.8 20.8 0 3.2 1.6 8 0 11.2 0 4.8 0 8-1.6 12.8-1.6 6.4-3.2 11.2-6.4 17.6-3.2 4.8-4.8 11.2-8 16-3.2 8-3.2 16-3.2 24 0 3.2 1.6 6.4 3.2 9.6 4.8 6.4 8 12.8 12.8 19.2 4.8 6.4 9.6 12.8 11.2 20.8 1.6 3.2 3.2 6.4 3.2 11.2 0 3.2 1.6 8 1.6 11.2 0 8-3.2 16-8 22.4-6.4 8-12.8 16-17.6 25.6-3.2 4.8-4.8 9.6-8 14.4-1.6 6.4-3.2 12.8-1.6 19.2 1.6 4.8 1.6 8 4.8 11.2 4.8 6.4 8 12.8 12.8 20.8 3.2 6.4 6.4 11.2 9.6 19.2 1.6 4.8 1.6 8 1.6 12.8 0 1.6 0 4.8-1.6 6.4-4.8 1.6-11.2 4.8-17.6 6.4v-3.2c1.6-4.8 1.6-9.6 0-16-1.6-9.6-6.4-16-9.6-24-3.2-4.8-6.4-9.6-8-14.4-3.2-4.8-6.4-11.2-8-16-1.6-4.8-3.2-9.6-1.6-14.4 0-3.2 1.6-8 1.6-11.2 1.6-4.8 4.8-9.6 8-14.4 4.8-6.4 11.2-14.4 16-20.8 3.2-4.8 6.4-9.6 8-14.4 1.6-4.8 3.2-9.6 3.2-16s-3.2-11.2-4.8-16c-3.2-6.4-8-12.8-12.8-17.6s-8-11.2-11.2-17.6c-1.6-3.2-1.6-4.8-1.6-8-1.6-3.2-1.6-4.8-1.6-8s1.6-6.4 1.6-9.6c0-1.6 1.6-4.8 1.6-6.4 0-3.2 1.6-4.8 3.2-8 1.6-1.6 1.6-3.2 1.6-4.8l4.8-14.4c1.6-3.2 1.6-6.4 3.2-9.6 0-1.6 1.6-3.2 1.6-4.8 1.6-3.2 1.6-6.4 1.6-9.6v-3.2-9.6c0-6.4-1.6-14.4-4.8-20.8-1.6-4.8-4.8-9.6-8-14.4-3.2-4.8-8-9.6-14.4-11.2v1.6c3.2 3.2 6.4 9.6 9.6 14.4 1.6 3.2 1.6 6.4 3.2 9.6 1.6 1.6 1.6 3.2 1.6 4.8v1.6c1.6 6.4 1.6 12.8 1.6 19.2 0 4.8-1.6 9.6-1.6 16 0 3.2-1.6 4.8-3.2 8-1.6 4.8-3.2 8-4.8 12.8-3.2 4.8-4.8 9.6-8 16 4.8-3.2 4.8 0 3.2 3.2-1.6 1.6-1.6 3.2-1.6 6.4v1.6c0 1.6 0 4.8-1.6 6.4v3.2c0 8 3.2 16 9.6 24 4.8 6.4 8 11.2 12.8 17.6 3.2 4.8 4.8 9.6 8 16 1.6 4.8 3.2 9.6 1.6 14.4-1.6 4.8-3.2 11.2-6.4 16-8 9.6-14.4 19.2-20.8 28.8l-4.8 9.6c-3.2 4.8-4.8 11.2-4.8 17.6 0 6.4 1.6 11.2 4.8 17.6l14.4 28.8c1.6 3.2 3.2 8 4.8 11.2 1.6 6.4 3.2 11.2 3.2 17.6 0 4.8-1.6 9.6-3.2 14.4v3.2c-6.4 1.6-11.2 3.2-17.6 4.8 0-3.2 1.6-4.8 1.6-6.4 0-3.2 1.6-6.4 1.6-9.6V736c0-8-1.6-14.4-4.8-20.8-1.6-3.2-3.2-8-4.8-11.2-3.2-6.4-6.4-12.8-11.2-20.8-1.6-3.2-3.2-6.4-4.8-11.2-1.6-3.2-1.6-4.8-1.6-8v-9.6c0-3.2 1.6-4.8 1.6-8 1.6-6.4 6.4-11.2 11.2-17.6 3.2-4.8 8-9.6 11.2-14.4 4.8-6.4 8-11.2 11.2-19.2 1.6-4.8 3.2-11.2 1.6-16 0-1.6-1.6-4.8-1.6-6.4-1.6-4.8-4.8-9.6-8-14.4-4.8-6.4-8-11.2-12.8-17.6-1.6-3.2-3.2-4.8-3.2-8-1.6-4.8-6.4-8-11.2-6.4-3.2 1.6-8 3.2-11.2 3.2-3.2 1.6-8 1.6-11.2 1.6-3.2 0-6.4-1.6-9.6-3.2-1.6-1.6-4.8-1.6-6.4-1.6-3.2-1.6-6.4 1.6-8 4.8-1.6 1.6-1.6 4.8-3.2 6.4-3.2 8-8 14.4-11.2 20.8-3.2 4.8-6.4 8-8 12.8-1.6 3.2-3.2 6.4-3.2 9.6v8c1.6 8 4.8 12.8 8 19.2 3.2 4.8 8 11.2 12.8 16 4.8 6.4 9.6 14.4 14.4 22.4 1.6 3.2 1.6 6.4 1.6 9.6 0 4.8 0 11.2-1.6 16-1.6 4.8-3.2 9.6-6.4 14.4-3.2 6.4-6.4 14.4-9.6 20.8-3.2 6.4-4.8 12.8-8 19.2 0 4.8-1.6 8-1.6 12.8 1.6 6.4 1.6 12.8 4.8 17.6v3.2h-3.2c-3.2 0-8-1.6-11.2-1.6-3.2 0-4.8-3.2-4.8-6.4 0-1.6-1.6-3.2-1.6-4.8v-3.2-14.4c0-3.2 1.6-4.8 1.6-8 1.6-8 6.4-12.8 9.6-20.8 1.6-4.8 4.8-8 6.4-12.8 1.6-3.2 3.2-6.4 3.2-9.6 1.6-3.2 1.6-6.4 3.2-9.6 1.6-8 1.6-14.4 0-22.4-3.2-9.6-8-17.6-14.4-25.6l-14.4-19.2c-1.6-3.2-3.2-6.4-3.2-11.2 0-1.6-1.6-3.2-1.6-4.8s0-3.2 1.6-4.8v-1.6c0-3.2 1.6-8 3.2-11.2 3.2-6.4 6.4-12.8 11.2-17.6 3.2-4.8 6.4-9.6 8-14.4 3.2-4.8 4.8-11.2 6.4-16 1.6-3.2 0-8 0-11.2-1.6-8-4.8-16-8-22.4-3.2-6.4-4.8-12.8-8-19.2-1.6-4.8-3.2-11.2-4.8-16-1.6-3.2-1.6-8-1.6-11.2v-9.6-3.2c0-4.8 1.6-9.6 3.2-14.4 3.2-6.4 8-12.8 11.2-19.2 0-1.6 1.6-1.6 1.6-3.2h-1.6c-4.8 3.2-8 8-11.2 11.2-4.8 4.8-6.4 11.2-9.6 17.6-1.6 3.2-1.6 4.8-1.6 8-1.6 4.8-1.6 11.2-1.6 16 0 3.2 0 8 1.6 11.2 1.6 3.2 1.6 8 3.2 11.2 1.6 4.8 3.2 9.6 6.4 14.4 1.6 3.2 3.2 8 4.8 11.2 1.6 3.2 3.2 8 3.2 11.2 1.6 4.8 1.6 9.6 1.6 16-1.6 6.4-3.2 11.2-6.4 17.6-1.6 3.2-4.8 6.4-8 11.2-4.8 6.4-9.6 12.8-12.8 20.8-3.2 8-4.8 14.4-3.2 22.4 0 3.2 1.6 8 3.2 11.2 1.6 3.2 3.2 8 6.4 11.2 3.2 4.8 6.4 8 9.6 12.8 3.2 4.8 8 9.6 9.6 14.4 1.6 3.2 3.2 4.8 3.2 8 1.6 3.2 1.6 4.8 1.6 8v11.2c0 3.2-1.6 6.4-1.6 9.6-3.2 9.6-9.6 17.6-14.4 27.2-3.2 4.8-6.4 11.2-8 16-1.6 4.8-3.2 9.6-3.2 16 0 3.2 1.6 8 1.6 11.2-1.6 0-8-1.6-17.6-4.8v-11.2c0-9.6 4.8-16 9.6-24 4.8-6.4 9.6-12.8 12.8-20.8 1.6-4.8 3.2-8 4.8-12.8 1.6-3.2 1.6-8 1.6-11.2 0-8-1.6-14.4-6.4-20.8-4.8-8-11.2-14.4-17.6-22.4-4.8-4.8-8-11.2-11.2-16-1.6-3.2-1.6-4.8-1.6-8v-4.8-1.6c0-3.2 0-6.4 1.6-9.6 1.6-3.2 1.6-8 3.2-11.2 1.6-4.8 4.8-8 6.4-11.2 3.2-4.8 8-11.2 11.2-16 3.2-4.8 6.4-9.6 8-14.4 1.6-3.2 1.6-6.4 1.6-9.6v-8c0-4.8-1.6-9.6-3.2-14.4-3.2-8-6.4-16-9.6-22.4l-4.8-14.4c0-3.2-1.6-4.8-1.6-8v-4.8-3.2c0-4.8 1.6-9.6 1.6-12.8 1.6-8 4.8-16 9.6-24 1.6-1.6 3.2-3.2 3.2-4.8 0-1.6 1.6-1.6 0-3.2-3.2 1.6-6.4 3.2-8 6.4-4.8 4.8-8 9.6-9.6 16-1.6 4.8-3.2 9.6-4.8 12.8-1.6 1.6-1.6 3.2-1.6 6.4-1.6 3.2-1.6 8-1.6 11.2 0 4.8 0 8 1.6 12.8 1.6 3.2 1.6 6.4 1.6 8 1.6 3.2 1.6 6.4 3.2 9.6 3.2 6.4 4.8 14.4 8 20.8 1.6 6.4 1.6 14.4 1.6 20.8 0 4.8-1.6 8-4.8 12.8-3.2 6.4-8 11.2-12.8 16-4.8 4.8-8 11.2-11.2 17.6-1.6 3.2-3.2 8-4.8 11.2-1.6 3.2-1.6 8-1.6 12.8 1.6 1.6 0 4.8 1.6 8 1.6 4.8 3.2 9.6 6.4 12.8 3.2 4.8 8 11.2 12.8 16 3.2 3.2 4.8 6.4 8 11.2 3.2 4.8 4.8 8 6.4 12.8 1.6 6.4 3.2 11.2 1.6 17.6-1.6 4.8-3.2 11.2-6.4 16-3.2 4.8-8 11.2-11.2 16-3.2 3.2-4.8 8-6.4 11.2-1.6 3.2-3.2 8-4.8 11.2-1.6 1.6 0 4.8 0 6.4v3.2h-3.2c-3.2-1.6-4.8-1.6-6.4-3.2-1.6-1.6-3.2-1.6-3.2-3.2l-1.6-1.6c0-3.2 0-6.4 1.6-9.6 1.6-8 6.4-14.4 11.2-20.8 3.2-4.8 8-11.2 11.2-17.6 3.2-4.8 4.8-9.6 4.8-16 0-4.8-1.6-9.6-4.8-14.4-1.6 0-1.6 0-1.6 1.6 0 3.2-1.6 8-1.6 11.2 0 4.8-1.6 8-3.2 11.2-4.8 9.6-11.2 17.6-16 27.2-3.2 4.8-4.8 9.6-8 14.4 0 1.6 0 1.6-1.6 3.2s-3.2 0-4.8 0l-9.6-4.8c-4.8-1.6-8-4.8-11.2-8-1.6-1.6-3.2-1.6-3.2-3.2 1.6-1.6 4.8-3.2 6.4-4.8 3.2-1.6 3.2-3.2 1.6-6.4-1.6-1.6-1.6-3.2-3.2-4.8-6.4 3.2-8 1.6-11.2 3.2l-9.6 4.8H336c-4.8-3.2-8-6.4-11.2-11.2-1.6-3.2-1.6-4.8 1.6-4.8 1.6-1.6 3.2-1.6 6.4-1.6s6.4-1.6 9.6-3.2c3.2-1.6 3.2-3.2 1.6-4.8 0 0 0-1.6-1.6-1.6-3.2-4.8-8-6.4-12.8-4.8-4.8 1.6-8 3.2-11.2 4.8-1.6 1.6-1.6 1.6-3.2 1.6s-3.2 0-3.2-1.6c-3.2-3.2-4.8-6.4-8-9.6 0-1.6-1.6-1.6-1.6-3.2l1.6-1.6c4.8-3.2 9.6-6.4 16-9.6 3.2-1.6 8-1.6 12.8-1.6 1.6 0 1.6 1.6 3.2 3.2l4.8 9.6c1.6 3.2 4.8 4.8 8 3.2 1.6 0 4.8-1.6 6.4-1.6 6.4-1.6 12.8-4.8 17.6-9.6 4.8-3.2 9.6-8 14.4-11.2 1.6-1.6 4.8-3.2 6.4-4.8-1.6-1.6-1.6-3.2-3.2-6.4-3.2-4.8-4.8-9.6-8-16-1.6-3.2-1.6-6.4-1.6-9.6-1.6-3.2-1.6-8-1.6-11.2s1.6-8 3.2-11.2c1.6-4.8 4.8-11.2 8-16 3.2-4.8 4.8-8 8-12.8 3.2-4.8 6.4-11.2 9.6-16 1.6-3.2 1.6-6.4 3.2-9.6 1.6-3.2 1.6-8 1.6-11.2 0-3.2-1.6-8-1.6-11.2-1.6-4.8-4.8-9.6-4.8-16 0-3.2-1.6-4.8-1.6-8 0-6.4-1.6-12.8-1.6-19.2v-11.2c0-4.8 1.6-8 1.6-12.8 1.6-4.8 3.2-9.6 4.8-12.8 1.6-3.2 3.2-4.8 4.8-8-1.6-1.6-3.2 0-3.2 1.6-4.8 3.2-8 8-9.6 11.2-3.2 4.8-4.8 8-6.4 12.8 0 1.6-1.6 1.6-1.6 3.2-1.6 4.8-3.2 9.6-3.2 14.4v12.8c0 4.8 1.6 9.6 1.6 14.4 0 3.2 1.6 6.4 1.6 9.6 1.6 3.2 1.6 6.4 1.6 9.6 0 6.4 1.6 14.4 1.6 20.8-1.6 4.8-3.2 11.2-4.8 16-4.8 6.4-8 14.4-12.8 20.8-3.2 6.4-8 12.8-9.6 19.2-1.6 4.8-3.2 9.6-3.2 14.4 0 1.6 0 1.6-1.6 3.2-6.4 4.8-12.8 11.2-20.8 14.4-1.6 1.6-3.2 1.6-6.4 1.6H336c-1.6 1.6-3.2 1.6-4.8 0-1.6 0-3.2 0-3.2-1.6-1.6 4.8 1.6 11.2 1.6 16h-1.6c-6.4 0-11.2 3.2-16 4.8-4.8 3.2-9.6 4.8-12.8 8-1.6 1.6-4.8 1.6-6.4-1.6-3.2-3.2-3.2-8-4.8-11.2 0-1.6 0-1.6 1.6-3.2 6.4-1.6 11.2-6.4 16-9.6 4.8-3.2 11.2-6.4 19.2-6.4 1.6-1.6 1.6-3.2 1.6-4.8-1.6-3.2-1.6-4.8-1.6-8l-1.6-1.6c-1.6-1.6-3.2-1.6-4.8-1.6-3.2 1.6-6.4 1.6-9.6 3.2-6.4 3.2-11.2 8-17.6 11.2-3.2 1.6-4.8 3.2-8 3.2-1.6 1.6-6.4-1.6-8-3.2-1.6-1.6-1.6-4.8-3.2-6.4-1.6-3.2 0-4.8 0-8h1.6c3.2 0 6.4-1.6 9.6-3.2l9.6-4.8c4.8-3.2 9.6-6.4 14.4-8 3.2-1.6 6.4-3.2 9.6-3.2 1.6 0 3.2-1.6 4.8-1.6 0-4.8 0-8 1.6-12.8H320c-6.4 0-11.2 1.6-16 4.8-6.4 3.2-12.8 6.4-17.6 9.6-1.6 0-3.2 1.6-3.2 1.6-4.8 1.6-9.6 3.2-14.4 1.6-1.6-6.4-3.2-11.2-4.8-19.2h3.2c3.2 0 6.4 0 9.6-1.6 4.8-1.6 9.6-3.2 14.4-6.4 4.8-1.6 8-4.8 12.8-8 4.8-1.6 8-3.2 12.8-4.8 1.6-1.6 4.8-1.6 8-1.6s4.8-1.6 6.4-4.8c1.6-3.2 1.6-6.4 1.6-9.6v-1.6h-1.6c-4.8 0-9.6 0-14.4 3.2-3.2 1.6-6.4 1.6-9.6 3.2l-9.6 4.8c-4.8 1.6-8 3.2-12.8 4.8-3.2 1.6-4.8 1.6-8 1.6h-6.4c-1.6 0-4.8-1.6-6.4-1.6-1.6 0-1.6-1.6-1.6-1.6 0-6.4-1.6-12.8-1.6-20.8v-1.6c1.6 0 3.2 0 4.8 1.6 8 1.6 16 1.6 24-1.6 1.6-1.6 3.2-1.6 4.8-1.6 1.6 0 1.6-1.6 3.2-1.6 8-3.2 16-8 24-11.2 1.6-1.6 3.2-1.6 4.8-3.2 3.2-1.6 6.4-1.6 9.6-1.6 4.8 0 6.4-1.6 8-6.4 0-1.6 1.6-3.2 1.6-4.8 0-1.6 1.6-3.2 1.6-4.8l-1.6-1.6c-3.2 0-4.8-1.6-8 0H336c-6.4 0-11.2 1.6-16 4.8l-9.6 4.8c-4.8 3.2-9.6 4.8-16 8-3.2 1.6-4.8 1.6-8 1.6-3.2 1.6-6.4 1.6-9.6 1.6-4.8-1.6-9.6-1.6-14.4-4.8-1.6-1.6-3.2-3.2-3.2-6.4v-8c0-3.2 1.6-4.8 1.6-8v-1.6c0-4.8 1.6-8 1.6-12.8 0-3.2 1.6-4.8 1.6-8s1.6-4.8 1.6-8c1.6-4.8 3.2-9.6 3.2-12.8 0-1.6 1.6-3.2 1.6-4.8l4.8-14.4c1.6-4.8 4.8-11.2 6.4-16s4.8-11.2 8-16c3.2-4.8 6.4-11.2 9.6-16 6.4-9.6 12.8-19.2 20.8-27.2 6.4-6.4 11.2-12.8 17.6-19.2 8-8 14.4-14.4 22.4-20.8 8-4.8 14.4-9.6 22.4-16 4.8-3.2 9.6-4.8 14.4-8 3.2-1.6 8-4.8 11.2-6.4 4.8-1.6 9.6-4.8 14.4-6.4l14.4-4.8c3.2-1.6 8-1.6 11.2-3.2 3.2-1.6 4.8-1.6 8-1.6 3.2-1.6 6.4-1.6 9.6-1.6 3.2-1.6 8-1.6 11.2-1.6h1.6c8-1.6 14.4-1.6 22.4-1.6 6.4 0 14.4-1.6 20.8-1.6 4.8 0 11.2 0 17.6 1.6 6.4 0 12.8 1.6 19.2 1.6 3.2 0 8 1.6 11.2 1.6h1.6c4.8 0 8 1.6 12.8 3.2 1.6 0 3.2 1.6 6.4 1.6 8 1.6 14.4 4.8 22.4 6.4 8 3.2 16 6.4 22.4 9.6 6.4 3.2 11.2 6.4 17.6 9.6l14.4 9.6 19.2 14.4c6.4 4.8 11.2 9.6 16 14.4 8 8 16 17.6 24 27.2 9.6 11.2 17.6 22.4 24 35.2 3.2 8 8 14.4 11.2 22.4 1.6 3.2 3.2 8 4.8 11.2 1.6 3.2 3.2 6.4 3.2 9.6 1.6 3.2 1.6 8 3.2 11.2 1.6 3.2 1.6 6.4 3.2 9.6 1.6 3.2 1.6 6.4 1.6 9.6 1.6 3.2 1.6 8 1.6 11.2 0 1.6 0 3.2 1.6 6.4 0 1.6 1.6 4.8 1.6 6.4 0 4.8 0 9.6 1.6 14.4 0 1.6 0 1.6-1.6 1.6l-9.6 4.8h-1.6c-3.2 1.6-8 0-11.2 0-3.2 0-6.4-1.6-9.6-3.2-8-3.2-14.4-8-22.4-11.2-3.2-1.6-8-3.2-11.2-3.2-3.2 0-4.8-1.6-8-1.6s-6.4 0-9.6 1.6v1.6c1.6 3.2 3.2 8 4.8 11.2 1.6 1.6 1.6 1.6 3.2 1.6 3.2 0 8 1.6 11.2 1.6 3.2 1.6 6.4 1.6 8 3.2 8 3.2 16 8 22.4 11.2 1.6 1.6 3.2 1.6 4.8 1.6 6.4 1.6 12.8 3.2 20.8 3.2 1.6 0 3.2 0 4.8-1.6 1.6 0 3.2 0 6.4-1.6v11.2c0 3.2 0 8-1.6 11.2-3.2 0-8 1.6-11.2 1.6-3.2 0-6.4-1.6-9.6-1.6-6.4-1.6-11.2-4.8-17.6-8-1.6-1.6-3.2-1.6-6.4-3.2-4.8-1.6-9.6-4.8-16-4.8H720c-3.2 0-4.8 0-8 1.6v1.6c0 3.2 1.6 6.4 1.6 11.2 0 1.6 1.6 1.6 1.6 1.6 3.2 0 4.8 0 8 1.6s8 3.2 11.2 4.8c4.8 3.2 9.6 4.8 14.4 8 4.8 3.2 9.6 4.8 14.4 6.4 4.8 1.6 9.6 3.2 14.4 3.2h1.6v3.2c0 1.6-1.6 3.2-1.6 4.8 0 3.2-1.6 6.4-1.6 8-1.6 3.2-4.8 4.8-8 3.2-4.8-1.6-11.2-3.2-16-6.4-4.8-3.2-8-4.8-12.8-8-4.8-3.2-11.2-4.8-17.6-4.8-1.6 0-3.2 1.6-3.2 3.2v11.2c1.6 1.6 4.8 1.6 6.4 1.6 4.8 1.6 9.6 3.2 14.4 6.4 4.8 3.2 11.2 6.4 17.6 9.6 3.2 1.6 8 3.2 11.2 3.2 1.6 0 3.2 1.6 1.6 3.2-1.6 4.8-3.2 11.2-8 16-3.2 0-4.8-1.6-6.4-1.6l-9.6-4.8c-6.4-3.2-11.2-6.4-17.6-9.6-3.2-1.6-6.4-1.6-9.6 0-1.6 3.2-1.6 8-3.2 11.2 3.2 1.6 6.4 1.6 9.6 3.2l9.6 4.8c4.8 3.2 9.6 4.8 12.8 8 1.6 1.6 3.2 1.6 4.8 1.6 1.6 0 1.6 1.6 1.6 1.6 0 1.6-1.6 3.2-1.6 4.8-1.6 3.2-3.2 4.8-4.8 8-1.6 0-4.8 0-6.4-1.6-4.8-3.2-9.6-4.8-14.4-8-3.2-1.6-6.4-3.2-9.6-3.2-1.6 0-3.2-1.6-6.4-1.6v-6.4c1.6-3.2 1.6-6.4 1.6-9.6h-3.2c-1.6 0-3.2 1.6-4.8 0-4.8-1.6-11.2-3.2-14.4-8-4.8-3.2-9.6-8-14.4-11.2l-1.6-1.6c0-1.6-1.6-4.8-1.6-6.4 0-4.8-1.6-8-3.2-11.2-3.2-8-8-14.4-12.8-20.8-3.2-4.8-8-11.2-11.2-17.6-1.6-3.2-3.2-6.4-3.2-9.6-1.6-4.8-1.6-9.6-1.6-12.8 0-4.8 1.6-8 3.2-12.8l4.8-14.4c1.6-4.8 1.6-11.2 1.6-16v-6.4c0-6.4-1.6-11.2-3.2-17.6l-4.8-14.4c-1.6-4.8-3.2-8-8-11.2-1.6-1.6-4.8-3.2-6.4-4.8 0 0-1.6 0-1.6-1.6 1.6 3.2 1.6 4.8 3.2 6.4 1.6 3.2 3.2 4.8 3.2 8 1.6 3.2 3.2 6.4 3.2 9.6 1.6 3.2 1.6 4.8 1.6 8 1.6 3.2 1.6 8 1.6 12.8 0 1.6 0 4.8-1.6 6.4 0 4.8-1.6 8-1.6 12.8 0 3.2-1.6 4.8-1.6 8-1.6 6.4-3.2 11.2-4.8 17.6-1.6 3.2-1.6 6.4-1.6 9.6v8c0 1.6 1.6 4.8 1.6 6.4l4.8 9.6c3.2 4.8 6.4 11.2 9.6 16s6.4 11.2 9.6 16c3.2 4.8 4.8 9.6 4.8 16 1.6 3.2 1.6 8 1.6 11.2 0 6.4-1.6 11.2-4.8 17.6l-4.8 9.6c-12.8 11.2-14.4 14.4-12.8 17.6z m-43.2-278.4v-3.2c0-6.4 3.2-11.2 4.8-16 1.6-3.2 3.2-8 3.2-11.2 0-3.2 0-3.2-1.6-3.2-4.8 0-11.2 1.6-16 3.2-8 3.2-16 6.4-22.4 11.2-4.8 3.2-9.6 4.8-14.4 8-1.6 1.6-3.2 0-3.2-1.6s-1.6-3.2-1.6-4.8c-1.6-3.2-3.2-8-4.8-11.2l-4.8-9.6c0-1.6 0-1.6 1.6-1.6l8-8 11.2-11.2c1.6-1.6 3.2-3.2 3.2-4.8h-6.4c-4.8 0-9.6-1.6-12.8-1.6h-8c-1.6 0-4.8-1.6-4.8-3.2s-1.6-1.6-1.6-3.2c-3.2-6.4-4.8-14.4-8-20.8 0-1.6-1.6-3.2-3.2-3.2l-4.8 9.6-4.8 9.6c-1.6 3.2-3.2 6.4-4.8 8 0 1.6-1.6 1.6-1.6 1.6-6.4 0-12.8 1.6-19.2 1.6h-9.6c-1.6 0-1.6 0-1.6 1.6v3.2c1.6 1.6 4.8 4.8 8 6.4 4.8 4.8 9.6 8 14.4 12.8l1.6 1.6v4.8c-1.6 3.2-3.2 8-3.2 11.2-1.6 4.8-3.2 9.6-6.4 12.8-1.6 1.6-1.6 3.2-4.8 1.6-6.4-4.8-14.4-8-20.8-12.8-4.8-3.2-9.6-4.8-14.4-8-3.2-1.6-4.8-1.6-8-3.2s-6.4-1.6-9.6 0v3.2c1.6 4.8 3.2 8 4.8 11.2l4.8 14.4c0 1.6 0 3.2-1.6 4.8l-9.6-4.8c-4.8-1.6-8-3.2-12.8-4.8-3.2-1.6-6.4-1.6-9.6-1.6-3.2 0-4.8 0-6.4 1.6 1.6 3.2 3.2 4.8 4.8 8 3.2 4.8 6.4 11.2 9.6 16 1.6 3.2 3.2 6.4 4.8 11.2 1.6 3.2 1.6 6.4 3.2 9.6 1.6 3.2 1.6 4.8 1.6 8 0 1.6 1.6 1.6 1.6 3.2 4.8-1.6 8-3.2 12.8-4.8 4.8-1.6 11.2-4.8 16-6.4 1.6 0 3.2-1.6 4.8-1.6 1.6 0 4.8-1.6 6.4-1.6 3.2-1.6 4.8-1.6 8-1.6 3.2-1.6 4.8-1.6 8-1.6 4.8-1.6 8-1.6 12.8-1.6 4.8-1.6 11.2-1.6 16-1.6 8-1.6 16-1.6 24 0h4.8c4.8 0 9.6 1.6 14.4 1.6 3.2 0 8 1.6 11.2 1.6h1.6c3.2 1.6 4.8 1.6 8 1.6 1.6 0 3.2 1.6 4.8 1.6 3.2 1.6 8 1.6 11.2 3.2 4.8 1.6 8 3.2 11.2 4.8 4.8 1.6 11.2 4.8 16 6.4 1.6 1.6 3.2 0 3.2-1.6 0-3.2 0-6.4 1.6-9.6l4.8-14.4c4.8-8 8-16 12.8-22.4 1.6-1.6 1.6-3.2 3.2-4.8h-1.6c-3.2 0-8 0-11.2 1.6-3.2 1.6-8 3.2-11.2 3.2-6.4-1.6-11.2 0-17.6 1.6z m-96 96c-4.8-3.2-9.6-3.2-14.4-1.6-4.8 1.6-9.6 1.6-14.4-1.6-3.2-1.6-4.8-1.6-6.4 1.6-1.6 1.6-1.6 3.2-1.6 4.8v14.4c1.6 4.8 1.6 9.6 3.2 14.4 1.6 6.4 4.8 11.2 9.6 17.6 3.2 4.8 8 9.6 12.8 12.8 3.2 3.2 6.4 4.8 11.2 6.4 1.6 0 3.2 1.6 4.8 1.6 3.2 1.6 6.4 1.6 9.6 1.6 3.2 0 6.4 0 9.6-1.6 3.2-1.6 8-3.2 11.2-4.8 8-4.8 14.4-12.8 19.2-20.8 3.2-4.8 4.8-9.6 6.4-14.4 1.6-3.2 1.6-6.4 3.2-9.6 1.6-4.8 3.2-11.2 1.6-16 0-3.2-1.6-4.8-4.8-8h-3.2c-3.2 1.6-4.8 1.6-8 1.6-4.8 0-9.6-1.6-14.4-3.2h-1.6c-1.6 4.8-3.2 6.4-3.2 8-1.6 1.6-1.6 3.2-4.8 1.6-1.6 0-3.2-1.6-3.2-3.2s-1.6-3.2-1.6-6.4c-1.6-6.4 0-12.8 3.2-19.2 1.6-3.2 3.2-4.8 4.8-6.4 3.2-1.6 8-3.2 11.2-3.2h1.6c4.8-1.6 11.2-1.6 16 0h3.2l1.6-1.6v-3.2c0-1.6-1.6-3.2-1.6-4.8-1.6-3.2-3.2-6.4-4.8-8-3.2-3.2-8-6.4-12.8-8-4.8-1.6-9.6-3.2-14.4-3.2h-3.2c-8-1.6-14.4-1.6-22.4 0-4.8 0-9.6 1.6-14.4 3.2-6.4 1.6-11.2 4.8-14.4 9.6-3.2 3.2-4.8 8-8 11.2v4.8c0 1.6 3.2 1.6 3.2 1.6 6.4 0 12.8-1.6 19.2 1.6 3.2 1.6 6.4 1.6 9.6 4.8 1.6 1.6 3.2 3.2 3.2 4.8v3.2c0 3.2 1.6 8 1.6 11.2 1.6 1.6 1.6 6.4-3.2 6.4z m192-36.8H688c-4.8-3.2-9.6-4.8-14.4-6.4-3.2-1.6-6.4-1.6-9.6-3.2-3.2 0-6.4-1.6-9.6-1.6h-9.6c-4.8 0-9.6 1.6-14.4 1.6-3.2 0-4.8 3.2-4.8 4.8v1.6l1.6 1.6c6.4 3.2 12.8 8 17.6 12.8 9.6 8 17.6 17.6 24 28.8 1.6 3.2 3.2 4.8 8 3.2 6.4-1.6 12.8 0 17.6 1.6 4.8 0 8 1.6 12.8 3.2l19.2 9.6c3.2 1.6 4.8 3.2 8 3.2 3.2 1.6 4.8 1.6 8 1.6 3.2 1.6 8 0 11.2-1.6 1.6 0 3.2-1.6 4.8-3.2 1.6 0 1.6-1.6 1.6-3.2-1.6-1.6-1.6-3.2-3.2-4.8-4.8-6.4-8-14.4-12.8-20.8-4.8-8-9.6-14.4-12.8-22.4-1.6-4.8-4.8-9.6-4.8-14.4-1.6-4.8-3.2-9.6-3.2-16v-14.4-3.2c0-1.6 0-3.2 1.6-4.8 0-4.8-3.2-6.4-6.4-4.8-6.4 3.2-11.2 8-16 12.8-4.8 6.4-8 12.8-9.6 20.8 0 8-1.6 12.8-3.2 17.6zM336 408c-1.6-4.8-1.6-8-3.2-12.8-1.6-3.2-1.6-6.4-3.2-9.6-3.2-6.4-6.4-11.2-11.2-16-3.2-3.2-6.4-6.4-11.2-8-3.2-1.6-4.8 0-4.8 3.2v3.2c1.6 6.4 1.6 11.2 0 17.6 0 3.2-1.6 4.8-1.6 8s-1.6 4.8-1.6 8c-1.6 6.4-4.8 12.8-8 17.6l-14.4 24c-4.8 6.4-8 12.8-12.8 19.2-1.6 1.6-1.6 1.6-1.6 3.2s0 3.2 1.6 3.2c3.2 1.6 4.8 1.6 8 1.6 6.4 0 12.8 0 19.2-1.6 4.8-1.6 9.6-4.8 14.4-6.4 3.2-1.6 8-3.2 11.2-4.8 3.2-1.6 6.4-3.2 9.6-3.2 1.6-1.6 4.8-1.6 8-1.6h20.8c3.2-4.8 6.4-9.6 11.2-14.4 4.8-6.4 11.2-11.2 17.6-17.6 1.6-1.6 3.2-3.2 6.4-4.8 3.2-3.2 8-4.8 11.2-8 1.6-1.6 3.2-3.2 3.2-4.8-1.6-1.6-4.8-1.6-6.4-3.2-3.2-1.6-8-1.6-11.2-1.6-4.8 0-9.6 0-14.4 1.6-4.8 1.6-8 1.6-12.8 3.2-4.8 1.6-9.6 3.2-12.8 4.8-6.4-1.6-9.6 0-11.2 0z m155.2 25.6c0-1.6 0-3.2-1.6-3.2-3.2-4.8-6.4-6.4-11.2-8-1.6 0-3.2 0-4.8-1.6h-6.4c-3.2 0-4.8 1.6-4.8 4.8v3.2c0 1.6 1.6 3.2 1.6 3.2 1.6 0 1.6 0 3.2-1.6l3.2-3.2c3.2 0 8-1.6 11.2 1.6 4.8 4.8 8 4.8 9.6 4.8z m41.6 0h3.2c3.2-1.6 4.8-1.6 8-1.6s4.8 0 8 1.6c1.6 1.6 3.2 1.6 4.8 1.6 1.6 0 3.2 1.6 3.2 0 1.6-1.6 0-8-1.6-8-1.6-1.6-4.8-1.6-6.4-1.6-4.8 0-9.6 1.6-16 3.2-3.2-1.6-3.2-1.6-3.2 4.8z" fill="" p-id="1414"></path>
  <path d="M515.2 142.4h8c6.4 0 11.2 6.4 9.6 12.8 0 1.6 0 1.6-1.6 3.2-1.6 3.2-4.8 4.8-8 4.8h-14.4c-1.6 0-3.2-1.6-3.2-3.2 0-4.8-1.6-9.6-1.6-14.4v-3.2c0-3.2 1.6-3.2 3.2-3.2 3.2 3.2 6.4 3.2 8 3.2zM502.4 107.2v-4.8c0-1.6 1.6-3.2 1.6-3.2 4.8 0 11.2-1.6 17.6 0 4.8 3.2 6.4 4.8 6.4 8v1.6c0 4.8-1.6 8-6.4 9.6-4.8 1.6-9.6 1.6-14.4 1.6-1.6 0-3.2-1.6-3.2-3.2 0-3.2-1.6-6.4-1.6-9.6zM385.6 123.2c4.8 0 8 1.6 9.6 8 1.6 4.8 1.6 8 0 12.8 0 1.6-1.6 3.2-3.2 3.2-4.8 3.2-11.2 4.8-16 6.4-1.6 1.6-3.2 0-3.2-1.6-3.2-4.8-4.8-11.2-8-16 0-1.6-1.6-1.6-1.6-3.2 1.6-1.6 1.6-1.6 3.2-1.6 3.2-1.6 8-3.2 11.2-4.8 3.2-3.2 4.8-3.2 8-3.2zM267.2 233.6c-4.8-9.6-8-20.8-12.8-30.4v-1.6c1.6 0 3.2 1.6 4.8 1.6 8 4.8 14.4 9.6 22.4 14.4 3.2 1.6 1.6 3.2 0 4.8-3.2 3.2-8 6.4-11.2 9.6 0 0-1.6 0-3.2 1.6zM334.4 854.4c-9.6 0-16-4.8-20.8-12.8-1.6-3.2-1.6-6.4-1.6-9.6-1.6-8 1.6-14.4 4.8-20.8 3.2-8 9.6-14.4 17.6-17.6 4.8-3.2 11.2-3.2 17.6 0 3.2 1.6 6.4 3.2 9.6 6.4 1.6 1.6 3.2 3.2 3.2 6.4 3.2 6.4 3.2 12.8 1.6 20.8l-4.8 9.6c-1.6 3.2-4.8 8-8 9.6-6.4 4.8-11.2 8-19.2 8z" fill="#005536" p-id="1415"></path>
  <path d="M491.2 433.6c-3.2-1.6-4.8-1.6-8-1.6-3.2-1.6-8-1.6-11.2-1.6-1.6 0-3.2 1.6-3.2 3.2-1.6 1.6-1.6 1.6-3.2 1.6-1.6-1.6-1.6-1.6-1.6-3.2v-3.2c0-3.2 1.6-4.8 4.8-4.8h6.4c1.6 0 3.2 0 4.8 1.6 4.8 1.6 9.6 3.2 11.2 8 0-1.6 0-1.6 0 0zM532.8 433.6c0-4.8 0-6.4 4.8-8 4.8-1.6 9.6-3.2 16-3.2 1.6 0 4.8 1.6 6.4 1.6 3.2 1.6 3.2 6.4 1.6 8-1.6 1.6-3.2 1.6-3.2 0-1.6 0-3.2-1.6-4.8-1.6-3.2-1.6-4.8-1.6-8-1.6s-4.8 0-8 1.6c-1.6 3.2-3.2 3.2-4.8 3.2z" fill="#FFFFFF" p-id="1416"></path>
  <path d="M518.4 350.4c-6.4 0-14.4 1.6-20.8 1.6h-6.4c-3.2 0-3.2-1.6-4.8-3.2-1.6-1.6-1.6-1.6 0-3.2s4.8-3.2 6.4-4.8c4.8-3.2 8-6.4 12.8-9.6l1.6-1.6c1.6-1.6 3.2-1.6 4.8 0 6.4 3.2 11.2 8 17.6 11.2l4.8 4.8c1.6 1.6 1.6 1.6 1.6 3.2s-1.6 1.6-3.2 1.6H518.4zM491.2 481.6h40c1.6 0 1.6 1.6 1.6 1.6-3.2 4.8-6.4 9.6-11.2 11.2-4.8 3.2-9.6 3.2-14.4 3.2-3.2 0-4.8-1.6-8-4.8l-8-8s-1.6-1.6 0-3.2zM502.4 470.4v-4.8c3.2-1.6 6.4-1.6 9.6-3.2h6.4c1.6 0 3.2 1.6 4.8 1.6 1.6 0 1.6 1.6 1.6 3.2s-1.6 1.6-1.6 3.2c-3.2 1.6-4.8 1.6-8 1.6h-8c-3.2-1.6-4.8-1.6-4.8-1.6z" fill="" p-id="1417"></path>
  <path d="M544 14.4c1.6 3.2 46.4 6.4 52.8 8 19.2 1.6 40 8 57.6 14.4 43.2 12.8 83.2 32 120 56 78.4 48 131.2 118.4 176 196.8 16 36.8 28.8 73.6 38.4 112 0 16 6.4 32 8 48 1.6 25.6 1.6 49.6 1.6 75.2 0 40-9.6 81.6-22.4 120-12.8 43.2-32 81.6-56 120-92.8 147.2-270.4 236.8-443.2 220.8s-323.2-116.8-401.6-272C1.6 568 12.8 390.4 96 251.2c49.6-80 120-144 204.8-185.6 38.4-19.2 80-32 121.6-41.6C464 14.4 504 14.4 544 14.4c0 1.6-20.8 0 0 0z m-30.4 956.8c185.6 4.8 350.4-112 428.8-275.2 73.6-153.6 49.6-347.2-54.4-480-28.8-38.4-64-73.6-104-100.8-35.2-24-75.2-49.6-118.4-60.8-41.6-12.8-80-20.8-123.2-24-44.8-3.2-88 1.6-131.2 9.6-80 14.4-163.2 59.2-220.8 116.8-62.4 62.4-112 137.6-132.8 225.6-17.6 68.8-19.2 139.2-6.4 209.6 12.8 67.2 41.6 140.8 86.4 193.6 24 28.8 48 56 75.2 80 30.4 24 64 43.2 97.6 62.4 62.4 27.2 134.4 43.2 203.2 43.2 16 0-8 0 0 0z" fill="#005536" p-id="1418"></path>
</svg>