<svg height="217" node-id="1" sillyvg="true" template-height="217" template-width="256" version="1.1" viewBox="0 0 256 217" width="256"
  xmlns="http://www.w3.org/2000/svg"
  xmlns:xlink="http://www.w3.org/1999/xlink">
  <defs node-id="87">
    <linearGradient gradientUnits="userSpaceOnUse" id="未命名的渐变_617" node-id="5" spreadMethod="pad" x1="145.16" x2="145.16" y1="51.36" y2="0">
      <stop offset="0" stop-color="#95f0b6"/>
      <stop offset="1" stop-color="#71d9ff"/>
    </linearGradient>
    <linearGradient gradientUnits="userSpaceOnUse" id="未命名的渐变_617-2" node-id="8" spreadMethod="pad" x1="85.89" x2="85.89" y1="86.71" y2="10.23">
      <stop offset="0" stop-color="#95f0b6"/>
      <stop offset="1" stop-color="#71d9ff"/>
    </linearGradient>
    <linearGradient gradientUnits="userSpaceOnUse" id="未命名的渐变_637" node-id="9" spreadMethod="pad" x1="191.33" x2="207.87" y1="205.81" y2="205.81">
      <stop offset="0" stop-color="#eabaff"/>
      <stop offset="1" stop-color="#ffc5c4"/>
    </linearGradient>
    <linearGradient gradientUnits="userSpaceOnUse" id="未命名的渐变_637-2" node-id="12" spreadMethod="pad" x1="191.33" x2="228.31" y1="214.64" y2="214.64">
      <stop offset="0" stop-color="#eabaff"/>
      <stop offset="1" stop-color="#ffc5c4"/>
    </linearGradient>
    <linearGradient gradientUnits="userSpaceOnUse" id="未命名的渐变_637-3" node-id="13" spreadMethod="pad" x1="-3840.67" x2="-3824.13" y1="-30.38" y2="-30.38">
      <stop offset="0" stop-color="#eabaff"/>
      <stop offset="1" stop-color="#ffc5c4"/>
    </linearGradient>
    <linearGradient gradientUnits="userSpaceOnUse" id="未命名的渐变_637-4" node-id="14" spreadMethod="pad" x1="-3840.67" x2="-3803.69" y1="-39.2" y2="-39.2">
      <stop offset="0" stop-color="#eabaff"/>
      <stop offset="1" stop-color="#ffc5c4"/>
    </linearGradient>
    <linearGradient gradientUnits="userSpaceOnUse" id="未命名的渐变_442" node-id="15" spreadMethod="pad" x1="131.22" x2="131.22" y1="58.43" y2="189.31">
      <stop offset="0" stop-color="#7abdff"/>
      <stop offset="1" stop-color="#8a7bff"/>
    </linearGradient>
    <linearGradient gradientUnits="userSpaceOnUse" id="未命名的渐变_454" node-id="18" spreadMethod="pad" x1="67.14" x2="67.14" y1="70.38" y2="183.41">
      <stop offset="0" stop-color="#d6ebff"/>
      <stop offset="1" stop-color="#dbd6ff"/>
    </linearGradient>
    <linearGradient gradientUnits="userSpaceOnUse" id="未命名的渐变_454-2" node-id="21" spreadMethod="pad" x1="164.17" x2="164.17" y1="70.38" y2="181.35">
      <stop offset="0" stop-color="#d6ebff"/>
      <stop offset="1" stop-color="#dbd6ff"/>
    </linearGradient>
    <linearGradient gradientUnits="userSpaceOnUse" id="未命名的渐变_454-3" node-id="22" spreadMethod="pad" x1="124.64" x2="124.64" y1="108.5" y2="180.1">
      <stop offset="0" stop-color="#d6ebff"/>
      <stop offset="1" stop-color="#dbd6ff"/>
    </linearGradient>
    <linearGradient gradientUnits="userSpaceOnUse" id="未命名的渐变_454-4" node-id="23" spreadMethod="pad" x1="208.49" x2="208.49" y1="108.5" y2="180.1">
      <stop offset="0" stop-color="#d6ebff"/>
      <stop offset="1" stop-color="#dbd6ff"/>
    </linearGradient>
    <linearGradient gradientUnits="userSpaceOnUse" id="未命名的渐变_454-5" node-id="24" spreadMethod="pad" x1="164.17" x2="164.17" y1="52.42" y2="183.67">
      <stop offset="0" stop-color="#d6ebff"/>
      <stop offset="1" stop-color="#dbd6ff"/>
    </linearGradient>
    <linearGradient gradientUnits="userSpaceOnUse" id="未命名的渐变_510" node-id="25" spreadMethod="pad" x1="164.17" x2="164.17" y1="78.54" y2="176.19">
      <stop offset="0" stop-color="#6a9ef7"/>
      <stop offset="1" stop-color="#9360e6"/>
    </linearGradient>
    <linearGradient gradientUnits="userSpaceOnUse" id="未命名的渐变_536" node-id="28" spreadMethod="pad" x1="109.66" x2="109.66" y1="78.54" y2="176.19">
      <stop offset="0" stop-color="#5c93f2"/>
      <stop offset="1" stop-color="#864ae8"/>
    </linearGradient>
    <linearGradient gradientUnits="userSpaceOnUse" id="未命名的渐变_536-2" node-id="31" spreadMethod="pad" x1="67.14" x2="67.14" y1="78.54" y2="179.26">
      <stop offset="0" stop-color="#5c93f2"/>
      <stop offset="1" stop-color="#864ae8"/>
    </linearGradient>
    <linearGradient gradientUnits="userSpaceOnUse" id="未命名的渐变_583" node-id="32" spreadMethod="pad" x1="227.66" x2="227.66" y1="130.87" y2="162.69">
      <stop offset="0" stop-color="#ffaa3f"/>
      <stop offset="1" stop-color="#d565ca"/>
    </linearGradient>
    <linearGradient gradientUnits="userSpaceOnUse" id="未命名的渐变_588" node-id="35" spreadMethod="pad" x1="227.66" x2="227.66" y1="132.54" y2="160.94">
      <stop offset="0" stop-color="#ffe574"/>
      <stop offset="1" stop-color="#ff87b7"/>
    </linearGradient>
  </defs>
  <g node-id="288">
    <path d="M 168.65 14.32 C 168.15 14.07 162.23 16.32 161.01 15.46 C 160.19 14.25 159.24 13.14 158.16 12.15 C 157.63 10.70 160.82 5.24 160.65 4.74 C 160.48 4.24 154.54 1.18 154.00 1.36 C 153.46 1.54 150.88 7.31 149.40 7.54 C 147.96 7.21 146.48 7.05 145.00 7.07 L 144.65 7.07 C 143.24 6.47 141.65 0.30 141.11 0.07 C 140.57 -0.16 134.28 1.80 134.00 2.33 C 133.72 2.86 135.93 8.49 135.18 9.85 C 135.08 9.93 134.98 10.02 134.89 10.12 C 133.53 11.01 132.28 12.07 131.19 13.27 C 129.68 13.72 124.28 10.61 123.78 10.78 C 123.28 10.95 120.20 16.85 120.39 17.42 C 120.58 17.99 127.27 20.92 126.56 22.31 L 126.67 22.25 C 126.36 23.77 126.24 25.32 126.31 26.87 C 125.31 28.23 119.58 29.76 119.31 30.22 C 119.04 30.68 121.10 37.03 121.64 37.30 C 122.18 37.57 128.08 35.30 129.28 36.17 C 130.31 37.71 131.57 39.10 133.00 40.28 C 133.00 42.16 130.29 46.80 130.45 47.28 C 130.61 47.76 136.56 50.84 137.13 50.65 C 137.70 50.46 140.64 43.81 142.04 44.52 L 142.04 44.52 C 143.66 44.81 145.31 44.88 146.95 44.73 C 148.24 46.21 149.60 51.17 150.04 51.38 C 150.48 51.59 156.88 49.60 157.16 49.07 C 157.44 48.54 155.16 42.81 155.99 41.52 C 157.31 40.62 158.52 39.55 159.57 38.34 C 161.47 38.34 166.12 41.03 166.57 40.87 C 167.02 40.71 170.15 34.80 169.96 34.23 C 169.77 33.66 164.42 31.33 163.81 29.83 C 164.18 28.12 164.31 26.37 164.19 24.62 C 165.49 23.31 170.77 21.88 170.99 21.44 C 171.21 21.00 169.19 14.59 168.65 14.32 Z M 147.89 34.08 C 143.32 35.55 138.43 33.04 136.95 28.48 C 135.47 23.92 137.96 19.02 142.53 17.53 C 147.09 16.04 151.99 18.52 153.49 23.08 C 154.97 27.66 152.47 32.58 147.89 34.08 Z" fill="url(#未命名的渐变_617)" fill-rule="nonzero" group-id="1" node-id="194" stroke="none" target-height="51.75" target-width="52.170006" target-x="119.04" target-y="-0.16"/>
    <path d="M 112.74 41.20 C 112.15 39.14 111.32 37.16 110.27 35.29 C 110.20 33.04 117.15 26.87 117.14 26.08 C 117.13 25.29 110.25 18.36 109.36 18.36 C 108.47 18.36 102.29 25.25 100.12 24.89 C 98.27 23.79 96.31 22.91 94.26 22.26 L 93.78 22.05 C 92.09 20.58 92.63 11.23 92.06 10.68 C 91.49 10.13 81.69 10.06 81.06 10.68 C 80.43 11.30 80.93 20.13 79.26 21.68 C 79.08 21.75 78.90 21.83 78.73 21.93 C 76.42 22.55 74.20 23.46 72.13 24.65 C 69.81 24.60 63.70 17.81 62.92 17.83 C 62.14 17.85 55.15 24.67 55.15 25.55 C 55.15 26.43 63.15 33.55 61.52 35.15 L 61.71 35.15 C 60.58 37.13 59.70 39.24 59.09 41.43 C 57.09 42.88 48.38 42.43 47.85 42.96 C 47.32 43.49 47.23 53.26 47.85 53.88 C 48.47 54.50 57.75 53.98 59.03 55.76 C 59.73 58.37 60.81 60.85 62.24 63.14 C 61.32 65.75 55.47 71.01 55.49 71.73 C 55.51 72.45 62.37 79.45 63.26 79.45 C 64.15 79.45 71.26 71.45 72.92 73.11 L 72.92 73.11 C 75.06 74.24 77.33 75.09 79.68 75.63 C 80.80 78.27 80.43 85.80 80.94 86.29 C 81.45 86.78 91.30 86.91 91.94 86.29 C 92.58 85.67 92.06 76.68 93.78 75.29 C 96.04 74.63 98.21 73.69 100.23 72.48 C 102.85 73.39 108.14 79.20 108.86 79.18 C 109.58 79.16 116.63 72.34 116.63 71.46 C 116.63 70.58 110.23 64.90 110.06 62.54 C 111.36 60.32 112.34 57.93 112.97 55.44 C 115.39 54.20 123.42 54.60 123.97 54.08 C 124.52 53.56 124.59 43.78 123.97 43.16 C 123.35 42.54 114.00 43.00 112.74 41.20 Z M 85.91 61.20 C 78.87 61.16 73.20 55.43 73.23 48.39 C 73.26 41.35 78.99 35.67 86.03 35.70 C 93.07 35.73 98.75 41.45 98.73 48.49 C 98.71 55.55 92.97 61.26 85.91 61.24 Z" fill="url(#未命名的渐变_617-2)" fill-rule="nonzero" group-id="1" node-id="196" stroke="none" target-height="76.850006" target-width="77.36" target-x="47.23" target-y="10.06"/>
    <path d="M 16.41 179.00 C 16.41 181.76 14.17 184.00 11.41 184.00 C 8.65 184.00 6.41 181.76 6.41 179.00 C 6.41 176.24 8.65 174.00 11.41 174.00 C 14.17 174.00 16.41 176.24 16.41 179.00 Z" fill="#dfe8ef" fill-rule="nonzero" group-id="1" node-id="198" stroke="none" target-height="10" target-width="10" target-x="6.41" target-y="174"/>
    <path d="M 11.18 175.55 L 11.18 178.05" fill="none" group-id="1" node-id="200" stroke="#dfe8ef" stroke-linecap="round" stroke-width="2" target-height="2.5" target-width="0" target-x="11.18" target-y="175.55"/>
    <path d="M 11.18 183.75 L 11.18 190.24 C 11.18 198.39 17.79 205.00 25.94 205.00 L 56.06 205.00" fill="none" group-id="1" node-id="202" stroke="#dfe8ef" stroke-dasharray="4.75 5.69" stroke-linecap="round" stroke-width="2" target-height="21.25" target-width="44.88" target-x="11.18" target-y="183.75"/>
    <path d="M 58.91 205.00 L 61.41 205.00" fill="none" group-id="1" node-id="204" stroke="#dfe8ef" stroke-linecap="round" stroke-width="2" target-height="0" target-width="2.5" target-x="58.91" target-y="205"/>
    <path d="M 255.41 67.00 C 255.41 69.76 253.17 72.00 250.41 72.00 C 247.65 72.00 245.41 69.76 245.41 67.00 C 245.41 64.24 247.65 62.00 250.41 62.00 C 253.17 62.00 255.41 64.24 255.41 67.00 Z" fill="#dfe8ef" fill-rule="nonzero" group-id="1" node-id="206" stroke="none" target-height="10" target-width="10" target-x="245.41" target-y="62"/>
    <path d="M 250.64 70.45 L 250.64 67.95" fill="none" group-id="1" node-id="208" stroke="#dfe8ef" stroke-linecap="round" stroke-width="2" target-height="2.5" target-width="0" target-x="250.64" target-y="67.95"/>
    <path d="M 250.64 62.25 L 250.64 55.76 C 250.64 51.84 249.08 48.09 246.31 45.32 C 243.54 42.55 239.79 41.00 235.87 41.00 L 205.75 41.00" fill="none" group-id="1" node-id="210" stroke="#dfe8ef" stroke-dasharray="4.75 5.69" stroke-linecap="round" stroke-width="2" target-height="21.252655" target-width="44.89" target-x="205.75" target-y="40.997345"/>
    <path d="M 202.91 41.00 L 200.41 41.00" fill="none" group-id="1" node-id="212" stroke="#dfe8ef" stroke-linecap="round" stroke-width="2" target-height="0" target-width="2.5" target-x="200.41" target-y="41"/>
    <path d="M 193.71 203.43 L 205.58 203.43 C 206.89 203.43 207.96 204.50 207.96 205.81 L 207.96 205.81 C 207.96 207.12 206.89 208.19 205.58 208.19 L 193.71 208.19 C 192.40 208.19 191.33 207.12 191.33 205.81 L 191.33 205.81 C 191.33 204.50 192.40 203.43 193.71 203.43 Z" fill="url(#未命名的渐变_637)" fill-rule="nonzero" group-id="1" node-id="214" stroke="none" target-height="4.76001" target-width="16.630005" target-x="191.33" target-y="203.43"/>
    <path d="M 193.71 212.25 L 225.93 212.25 C 227.24 212.25 228.31 213.32 228.31 214.63 L 228.31 214.63 C 228.31 215.94 227.24 217.01 225.93 217.01 L 193.71 217.01 C 192.40 217.01 191.33 215.94 191.33 214.63 L 191.33 214.63 C 191.33 213.32 192.40 212.25 193.71 212.25 Z" fill="url(#未命名的渐变_637-2)" fill-rule="nonzero" group-id="1" node-id="216" stroke="none" target-height="4.7599945" target-width="36.979996" target-x="191.33" target-y="212.25"/>
    <g node-id="289">
      <path d="M 34.60 33.76 L 22.73 33.76 L 21.80 33.57 L 21.05 33.06 L 20.54 32.31 L 20.35 31.38 L 20.35 31.38 L 20.54 30.45 L 21.05 29.70 L 21.80 29.19 L 22.73 29.00 L 34.60 29.00 L 35.53 29.19 L 36.28 29.70 L 36.79 30.45 L 36.98 31.38 L 36.98 31.38 L 36.79 32.31 L 36.28 33.06 L 35.53 33.57 L 34.60 33.76 Z" fill="url(#未命名的渐变_637-3)" fill-rule="nonzero" group-id="1,2" node-id="220" stroke="none" target-height="4.7599983" target-width="16.630001" target-x="20.349998" target-y="29"/>
    </g>
    <g node-id="290">
      <path d="M 34.60 42.59 L 2.38 42.59 L 1.45 42.40 L 0.70 41.89 L 0.19 41.14 L 0.00 40.21 L 0.00 40.21 L 0.19 39.28 L 0.70 38.53 L 1.45 38.02 L 2.38 37.83 L 34.60 37.83 L 35.53 38.02 L 36.28 38.53 L 36.79 39.28 L 36.98 40.21 L 36.98 40.21 L 36.79 41.14 L 36.28 41.89 L 35.53 42.40 L 34.60 42.59 Z" fill="url(#未命名的渐变_637-4)" fill-rule="nonzero" group-id="1,3" node-id="225" stroke="none" target-height="4.760002" target-width="36.98" target-x="0" target-y="37.83"/>
    </g>
    <path d="M 30.64 56.01 L 231.82 56.01 C 234.16 56.01 236.05 57.90 236.05 60.24 L 236.05 184.83 C 236.05 187.17 234.16 189.06 231.82 189.06 L 30.64 189.06 C 28.30 189.06 26.41 187.17 26.41 184.83 L 26.41 60.24 C 26.41 57.90 28.30 56.01 30.64 56.01 Z" fill="url(#未命名的渐变_442)" fill-rule="nonzero" group-id="1" node-id="228" stroke="none" target-height="133.05" target-width="209.64" target-x="26.41" target-y="56.01"/>
    <path d="M 41.98 70.38 L 92.30 70.38 C 94.95 70.38 97.09 72.52 97.09 75.17 L 97.09 177.00 C 97.09 179.65 94.95 181.79 92.30 181.79 L 41.98 181.79 C 39.33 181.79 37.19 179.65 37.19 177.00 L 37.19 75.17 C 37.19 72.52 39.33 70.38 41.98 70.38 Z" fill="url(#未命名的渐变_454)" fill-rule="nonzero" group-id="1" node-id="230" stroke="none" target-height="111.409996" target-width="59.899998" target-x="37.19" target-y="70.38"/>
    <path d="M 105.47 70.38 L 222.87 70.38 C 225.52 70.38 227.66 72.52 227.66 75.17 L 227.66 163.82 C 227.66 166.47 225.52 168.61 222.87 168.61 L 105.47 168.61 C 102.82 168.61 100.68 166.47 100.68 163.82 L 100.68 75.17 C 100.68 72.52 102.82 70.38 105.47 70.38 Z" fill="url(#未命名的渐变_454-2)" fill-rule="nonzero" group-id="1" node-id="232" stroke="none" target-height="98.23" target-width="126.98" target-x="100.68" target-y="70.38"/>
    <path d="M 126.85 154.24 L 122.42 154.24 C 122.24 154.76 122.18 155.32 122.24 155.87 L 122.24 174.17 C 122.18 174.72 122.24 175.28 122.42 175.80 L 126.85 175.80 C 127.03 175.28 127.09 174.72 127.03 174.17 L 127.03 155.87 C 127.09 155.32 127.03 154.76 126.85 154.24 Z" fill="url(#未命名的渐变_454-3)" fill-rule="nonzero" group-id="1" node-id="234" stroke="none" target-height="21.559998" target-width="4.906143" target-x="122.18193" target-y="154.24"/>
    <path d="M 210.70 154.24 L 206.27 154.24 C 206.09 154.76 206.03 155.32 206.09 155.87 L 206.09 174.17 C 206.03 174.72 206.09 175.28 206.27 175.80 L 210.70 175.80 C 210.88 175.28 210.95 174.72 210.89 174.17 L 210.89 155.87 C 210.95 155.32 210.88 154.76 210.70 154.24 Z" fill="url(#未命名的渐变_454-4)" fill-rule="nonzero" group-id="1" node-id="236" stroke="none" target-height="21.559998" target-width="4.915863" target-x="206.03192" target-y="154.24"/>
    <path d="M 222.86 172.21 L 105.47 172.21 C 102.82 172.21 100.68 174.35 100.68 177.00 C 100.68 179.65 102.82 181.79 105.47 181.79 L 222.86 181.79 C 225.51 181.79 227.65 179.65 227.65 177.00 C 227.65 174.35 225.51 172.21 222.86 172.21 Z" fill="url(#未命名的渐变_454-5)" fill-rule="nonzero" group-id="1" node-id="238" stroke="none" target-height="9.579987" target-width="126.96999" target-x="100.68" target-y="172.21"/>
    <path d="M 220.65 78.77 L 107.65 78.77 C 105.18 78.70 103.12 80.65 103.04 83.12 L 103.04 161.87 C 103.12 164.34 105.18 166.29 107.65 166.22 L 220.65 166.22 C 221.84 166.25 222.99 165.82 223.86 165.00 C 224.72 164.18 225.23 163.06 225.26 161.87 L 225.26 83.12 C 225.23 81.93 224.72 80.81 223.86 79.99 C 222.99 79.17 221.84 78.74 220.65 78.77 Z" fill="url(#未命名的渐变_510)" fill-rule="nonzero" group-id="1" node-id="240" stroke="none" target-height="87.58456" target-width="122.21999" target-x="103.04" target-y="78.70272"/>
    <path d="M 116.25 78.77 L 107.68 78.77 C 105.21 78.70 103.15 80.65 103.07 83.12 L 103.07 161.87 C 103.15 164.34 105.21 166.29 107.68 166.22 L 116.25 166.22 Z" fill="url(#未命名的渐变_536)" fill-rule="nonzero" group-id="1" node-id="242" stroke="none" target-height="87.58456" target-width="13.18" target-x="103.07" target-y="78.70272"/>
    <path d="M 90.28 78.77 L 44.00 78.77 C 41.57 78.76 39.60 80.72 39.59 83.15 L 39.59 174.82 C 39.60 177.25 41.57 179.21 44.00 179.20 L 90.28 179.20 C 92.71 179.21 94.68 177.25 94.69 174.82 L 94.69 83.15 C 94.68 80.72 92.71 78.76 90.28 78.77 Z" fill="url(#未命名的渐变_536-2)" fill-rule="nonzero" group-id="1" node-id="244" stroke="none" target-height="100.44108" target-width="55.100002" target-x="39.59" target-y="78.76446"/>
    <path d="M 121.64 87.16 L 195.90 87.16 C 196.89 87.16 197.70 87.96 197.70 88.95 L 197.70 88.95 C 197.70 89.95 196.89 90.75 195.90 90.75 L 121.64 90.75 C 120.65 90.75 119.84 89.95 119.84 88.95 L 119.84 88.95 C 119.84 87.96 120.65 87.16 121.64 87.16 Z" fill="#8ac5ff" fill-rule="nonzero" group-id="1" node-id="246" stroke="none" target-height="3.5899963" target-width="77.86" target-x="119.84" target-y="87.16"/>
    <path d="M 109.66 87.16 L 109.66 87.16 C 110.65 87.16 111.45 87.96 111.45 88.95 L 111.45 88.95 C 111.45 89.95 110.65 90.75 109.66 90.75 L 109.66 90.75 C 108.66 90.75 107.86 89.95 107.86 88.95 L 107.86 88.95 C 107.86 87.96 108.66 87.16 109.66 87.16 Z" fill="#8ac5ff" fill-rule="nonzero" group-id="1" node-id="248" stroke="none" target-height="3.5899963" target-width="3.5899963" target-x="107.86" target-y="87.16"/>
    <path d="M 109.66 94.34 L 109.66 94.34 C 110.65 94.34 111.45 95.14 111.45 96.14 L 111.45 96.14 C 111.45 97.13 110.65 97.93 109.66 97.93 L 109.66 97.93 C 108.66 97.93 107.86 97.13 107.86 96.14 L 107.86 96.14 C 107.86 95.14 108.66 94.34 109.66 94.34 Z" fill="#8ac5ff" fill-rule="nonzero" group-id="1" node-id="250" stroke="none" target-height="3.590004" target-width="3.5899963" target-x="107.86" target-y="94.34"/>
    <path d="M 109.66 115.91 L 109.66 115.91 C 110.65 115.91 111.45 116.71 111.45 117.70 L 111.45 117.70 C 111.45 118.70 110.65 119.50 109.66 119.50 L 109.66 119.50 C 108.66 119.50 107.86 118.70 107.86 117.70 L 107.86 117.70 C 107.86 116.71 108.66 115.91 109.66 115.91 Z" fill="#8ac5ff" fill-rule="nonzero" group-id="1" node-id="252" stroke="none" target-height="3.5899963" target-width="3.5899963" target-x="107.86" target-y="115.91"/>
    <path d="M 109.66 108.72 L 109.66 108.72 C 110.65 108.72 111.45 109.52 111.45 110.52 L 111.45 110.52 C 111.45 111.51 110.65 112.31 109.66 112.31 L 109.66 112.31 C 108.66 112.31 107.86 111.51 107.86 110.52 L 107.86 110.52 C 107.86 109.52 108.66 108.72 109.66 108.72 Z" fill="#8ac5ff" fill-rule="nonzero" group-id="1" node-id="254" stroke="none" target-height="3.5899963" target-width="3.5899963" target-x="107.86" target-y="108.72"/>
    <path d="M 109.66 101.53 L 109.66 101.53 C 110.65 101.53 111.45 102.33 111.45 103.33 L 111.45 103.33 C 111.45 104.32 110.65 105.12 109.66 105.12 L 109.66 105.12 C 108.66 105.12 107.86 104.32 107.86 103.33 L 107.86 103.33 C 107.86 102.33 108.66 101.53 109.66 101.53 Z" fill="#8ac5ff" fill-rule="nonzero" group-id="1" node-id="256" stroke="none" target-height="3.590004" target-width="3.5899963" target-x="107.86" target-y="101.53"/>
    <path d="M 49.77 87.16 L 49.77 87.16 C 50.76 87.16 51.56 87.96 51.56 88.95 L 51.56 88.95 C 51.56 89.95 50.76 90.75 49.77 90.75 L 49.77 90.75 C 48.77 90.75 47.97 89.95 47.97 88.95 L 47.97 88.95 C 47.97 87.96 48.77 87.16 49.77 87.16 Z" fill="#8ac5ff" fill-rule="nonzero" group-id="1" node-id="258" stroke="none" target-height="3.5899963" target-width="3.5900002" target-x="47.97" target-y="87.16"/>
    <path d="M 49.77 94.34 L 49.77 94.34 C 50.76 94.34 51.56 95.14 51.56 96.14 L 51.56 96.14 C 51.56 97.13 50.76 97.93 49.77 97.93 L 49.77 97.93 C 48.77 97.93 47.97 97.13 47.97 96.14 L 47.97 96.14 C 47.97 95.14 48.77 94.34 49.77 94.34 Z" fill="#8ac5ff" fill-rule="nonzero" group-id="1" node-id="260" stroke="none" target-height="3.590004" target-width="3.5900002" target-x="47.97" target-y="94.34"/>
    <path d="M 49.77 108.72 L 49.77 108.72 C 50.76 108.72 51.56 109.52 51.56 110.52 L 51.56 110.52 C 51.56 111.51 50.76 112.31 49.77 112.31 L 49.77 112.31 C 48.77 112.31 47.97 111.51 47.97 110.52 L 47.97 110.52 C 47.97 109.52 48.77 108.72 49.77 108.72 Z" fill="#8ac5ff" fill-rule="nonzero" group-id="1" node-id="262" stroke="none" target-height="3.5899963" target-width="3.5900002" target-x="47.97" target-y="108.72"/>
    <path d="M 49.77 101.53 L 49.77 101.53 C 50.76 101.53 51.56 102.33 51.56 103.33 L 51.56 103.33 C 51.56 104.32 50.76 105.12 49.77 105.12 L 49.77 105.12 C 48.77 105.12 47.97 104.32 47.97 103.33 L 47.97 103.33 C 47.97 102.33 48.77 101.53 49.77 101.53 Z" fill="#8ac5ff" fill-rule="nonzero" group-id="1" node-id="264" stroke="none" target-height="3.590004" target-width="3.5900002" target-x="47.97" target-y="101.53"/>
    <path d="M 121.64 94.34 L 153.98 94.34 C 154.97 94.34 155.78 95.14 155.78 96.14 L 155.78 96.14 C 155.78 97.13 154.97 97.93 153.98 97.93 L 121.64 97.93 C 120.65 97.93 119.84 97.13 119.84 96.14 L 119.84 96.14 C 119.84 95.14 120.65 94.34 121.64 94.34 Z" fill="#8ac5ff" fill-rule="nonzero" group-id="1" node-id="266" stroke="none" target-height="3.590004" target-width="35.940002" target-x="119.84" target-y="94.34"/>
    <path d="M 55.76 94.34 L 66.54 94.34 C 67.53 94.34 68.34 95.14 68.34 96.14 L 68.34 96.14 C 68.34 97.13 67.53 97.93 66.54 97.93 L 55.76 97.93 C 54.77 97.93 53.96 97.13 53.96 96.14 L 53.96 96.14 C 53.96 95.14 54.77 94.34 55.76 94.34 Z" fill="#8ac5ff" fill-rule="nonzero" group-id="1" node-id="268" stroke="none" target-height="3.590004" target-width="14.379997" target-x="53.96" target-y="94.34"/>
    <path d="M 55.76 87.16 L 60.55 87.16 C 61.54 87.16 62.35 87.96 62.35 88.95 L 62.35 88.95 C 62.35 89.95 61.54 90.75 60.55 90.75 L 55.76 90.75 C 54.77 90.75 53.96 89.95 53.96 88.95 L 53.96 88.95 C 53.96 87.96 54.77 87.16 55.76 87.16 Z" fill="#8ac5ff" fill-rule="nonzero" group-id="1" node-id="270" stroke="none" target-height="3.5899963" target-width="8.389999" target-x="53.96" target-y="87.16"/>
    <path d="M 55.76 101.53 L 66.54 101.53 C 67.53 101.53 68.34 102.33 68.34 103.33 L 68.34 103.33 C 68.34 104.32 67.53 105.12 66.54 105.12 L 55.76 105.12 C 54.77 105.12 53.96 104.32 53.96 103.33 L 53.96 103.33 C 53.96 102.33 54.77 101.53 55.76 101.53 Z" fill="#8ac5ff" fill-rule="nonzero" group-id="1" node-id="272" stroke="none" target-height="3.590004" target-width="14.379997" target-x="53.96" target-y="101.53"/>
    <path d="M 55.76 108.72 L 78.51 108.72 C 79.50 108.72 80.31 109.52 80.31 110.52 L 80.31 110.52 C 80.31 111.51 79.50 112.31 78.51 112.31 L 55.76 112.31 C 54.77 112.31 53.96 111.51 53.96 110.52 L 53.96 110.52 C 53.96 109.52 54.77 108.72 55.76 108.72 Z" fill="#8ac5ff" fill-rule="nonzero" group-id="1" node-id="274" stroke="none" target-height="3.5899963" target-width="26.349998" target-x="53.96" target-y="108.72"/>
    <path d="M 121.64 115.91 L 163.56 115.91 C 164.55 115.91 165.36 116.71 165.36 117.70 L 165.36 117.70 C 165.36 118.70 164.55 119.50 163.56 119.50 L 121.64 119.50 C 120.65 119.50 119.84 118.70 119.84 117.70 L 119.84 117.70 C 119.84 116.71 120.65 115.91 121.64 115.91 Z" fill="#8ac5ff" fill-rule="nonzero" group-id="1" node-id="276" stroke="none" target-height="3.5899963" target-width="45.520004" target-x="119.84" target-y="115.91"/>
    <path d="M 206.42 130.28 L 248.90 130.28 C 253.05 130.28 256.41 133.64 256.41 137.79 L 256.41 155.11 C 256.41 159.26 253.05 162.62 248.90 162.62 L 206.42 162.62 C 202.27 162.62 198.91 159.26 198.91 155.11 L 198.91 137.79 C 198.91 133.64 202.27 130.28 206.42 130.28 Z" fill="url(#未命名的渐变_583)" fill-rule="nonzero" group-id="1" node-id="278" stroke="none" target-height="32.339996" target-width="57.5" target-x="198.91" target-y="130.28"/>
    <path d="M 208.10 132.02 L 247.21 132.02 C 250.97 132.02 254.01 135.06 254.01 138.82 L 254.01 154.08 C 254.01 157.84 250.97 160.88 247.21 160.88 L 208.10 160.88 C 204.34 160.88 201.30 157.84 201.30 154.08 L 201.30 138.82 C 201.30 135.06 204.34 132.02 208.10 132.02 Z" fill="url(#未命名的渐变_588)" fill-rule="nonzero" group-id="1" node-id="280" stroke="none" target-height="28.86" target-width="52.70999" target-x="201.3" target-y="132.02"/>
    <path d="M 233.49 150.63 C 233.51 150.85 233.45 151.07 233.33 151.25 C 233.16 151.38 232.95 151.44 232.74 151.42 L 226.88 151.42 C 226.42 151.42 226.03 151.42 225.73 151.42 C 225.45 151.40 225.17 151.33 224.91 151.23 C 224.67 151.14 224.45 151.00 224.26 150.82 C 224.02 150.61 223.80 150.38 223.60 150.14 C 223.44 150.41 223.25 150.66 223.04 150.90 C 222.84 151.12 222.61 151.31 222.35 151.47 C 222.14 151.61 221.90 151.69 221.65 151.69 C 221.43 151.70 221.21 151.58 221.10 151.39 C 220.96 151.20 220.91 150.96 220.96 150.73 C 221.07 150.46 221.28 150.25 221.55 150.13 C 221.69 150.04 221.82 149.94 221.94 149.83 C 222.08 149.71 222.20 149.58 222.30 149.43 C 222.40 149.29 222.49 149.13 222.55 148.97 C 222.61 148.82 222.64 148.65 222.64 148.49 L 222.64 144.91 C 222.65 144.80 222.63 144.69 222.57 144.60 C 222.50 144.53 222.40 144.50 222.30 144.51 L 221.69 144.51 C 221.48 144.53 221.26 144.47 221.10 144.33 C 220.98 144.16 220.92 143.96 220.94 143.75 C 220.93 143.54 220.98 143.33 221.10 143.15 C 221.26 143.00 221.47 142.93 221.69 142.96 L 222.92 142.96 C 223.12 142.96 223.33 142.98 223.53 143.02 C 223.68 143.05 223.82 143.13 223.92 143.25 C 224.03 143.38 224.10 143.54 224.13 143.71 C 224.17 143.96 224.18 144.20 224.18 144.45 L 224.18 148.38 C 224.19 148.43 224.19 148.49 224.18 148.54 C 224.33 148.79 224.50 149.02 224.70 149.24 C 224.86 149.41 225.06 149.56 225.27 149.66 C 225.49 149.77 225.73 149.85 225.97 149.88 C 226.27 149.92 226.58 149.94 226.89 149.94 L 232.75 149.94 C 232.96 149.92 233.17 149.98 233.34 150.11 C 233.45 150.26 233.50 150.44 233.49 150.63 Z M 223.95 141.93 C 223.79 142.08 223.58 142.16 223.36 142.15 C 223.12 142.09 222.91 141.94 222.77 141.73 L 222.48 141.43 L 222.23 141.17 L 221.96 140.90 L 221.63 140.59 C 221.46 140.44 221.33 140.24 221.26 140.02 C 221.22 139.80 221.29 139.57 221.46 139.42 C 221.60 139.27 221.80 139.18 222.01 139.17 C 222.27 139.19 222.51 139.29 222.70 139.47 C 222.94 139.68 223.15 139.87 223.33 140.05 C 223.51 140.23 223.72 140.43 223.95 140.68 C 224.12 140.86 224.23 141.09 224.28 141.33 C 224.28 141.58 224.15 141.82 223.93 141.95 Z M 225.62 144.05 C 225.40 144.08 225.19 144.00 225.04 143.84 C 224.93 143.68 224.87 143.49 224.88 143.29 C 224.87 143.09 224.92 142.89 225.04 142.72 C 225.20 142.57 225.41 142.50 225.62 142.53 L 232.54 142.53 C 232.76 142.50 232.97 142.57 233.13 142.72 C 233.24 142.89 233.29 143.09 233.28 143.29 C 233.28 143.48 233.23 143.68 233.13 143.84 C 232.98 144.00 232.76 144.08 232.54 144.05 L 229.00 144.05 C 228.85 144.38 228.71 144.66 228.58 144.90 C 228.45 145.14 228.33 145.35 228.21 145.55 C 228.09 145.75 227.98 145.94 227.86 146.12 L 227.52 146.72 C 227.38 146.94 227.36 147.08 227.45 147.14 C 227.61 147.20 227.78 147.22 227.94 147.19 L 231.09 146.95 C 231.00 146.75 230.90 146.56 230.79 146.37 C 230.68 146.19 230.56 145.96 230.41 145.67 L 230.41 145.67 C 230.25 145.46 230.18 145.19 230.22 144.92 C 230.28 144.73 230.42 144.56 230.60 144.47 C 230.79 144.35 231.02 144.32 231.24 144.37 C 231.51 144.49 231.72 144.71 231.83 144.98 C 231.98 145.30 232.11 145.56 232.21 145.76 C 232.31 145.96 232.42 146.17 232.51 146.37 C 232.60 146.57 232.70 146.81 232.80 147.08 C 232.90 147.35 233.02 147.69 233.17 148.13 C 233.29 148.40 233.32 148.71 233.25 149.00 C 233.14 149.22 232.94 149.38 232.70 149.42 C 232.60 149.43 232.50 149.43 232.40 149.42 C 232.31 149.42 232.21 149.40 232.13 149.35 C 232.04 149.29 231.97 149.21 231.92 149.12 C 231.84 148.99 231.78 148.85 231.74 148.70 L 231.69 148.54 L 231.63 148.38 L 226.52 148.84 C 226.22 148.91 225.91 148.91 225.61 148.84 C 225.41 148.78 225.24 148.65 225.13 148.47 C 225.04 148.29 225.01 148.08 225.06 147.88 C 225.12 147.62 225.24 147.38 225.40 147.17 C 225.59 146.92 225.78 146.67 225.95 146.43 C 226.12 146.19 226.29 145.95 226.45 145.70 C 226.61 145.45 226.77 145.19 226.93 144.92 C 227.09 144.65 227.24 144.36 227.40 144.03 Z M 232.80 140.27 C 232.81 140.47 232.75 140.66 232.65 140.83 C 232.51 140.99 232.29 141.07 232.08 141.04 L 226.08 141.04 C 225.86 141.07 225.65 140.99 225.50 140.83 C 225.40 140.66 225.34 140.47 225.35 140.27 C 225.34 140.07 225.39 139.87 225.50 139.70 C 225.66 139.55 225.87 139.48 226.08 139.51 L 232.08 139.51 C 232.29 139.48 232.50 139.55 232.65 139.70 C 232.76 139.87 232.81 140.07 232.80 140.27 Z" fill="#ffffff" fill-rule="nonzero" group-id="1" node-id="282" stroke="none" target-height="12.528976" target-width="12.600403" target-x="220.90565" target-y="139.17"/>
    <path d="M 235.54 147.00 C 235.34 147.22 235.08 147.37 234.79 147.42 C 234.56 147.45 234.34 147.36 234.20 147.17 C 234.03 147.00 233.97 146.75 234.03 146.52 C 234.13 146.24 234.31 145.99 234.54 145.80 C 235.48 144.92 236.29 143.91 236.94 142.80 C 237.06 142.56 237.23 142.36 237.45 142.21 C 237.66 142.11 237.92 142.13 238.10 142.28 C 238.33 142.36 238.51 142.55 238.57 142.79 C 238.58 143.08 238.49 143.37 238.30 143.59 C 237.99 144.07 237.65 144.59 237.30 145.06 L 237.30 151.00 C 237.32 151.21 237.24 151.42 237.09 151.57 C 236.93 151.70 236.73 151.76 236.53 151.75 C 236.33 151.76 236.13 151.70 235.96 151.59 C 235.81 151.43 235.74 151.22 235.76 151.00 L 235.76 146.90 C 235.72 146.92 235.69 146.95 235.66 146.98 Z M 238.15 140.34 C 237.83 140.90 237.48 141.43 237.08 141.94 C 236.68 142.45 236.24 142.93 235.77 143.37 C 235.59 143.58 235.35 143.73 235.08 143.78 C 234.83 143.76 234.60 143.62 234.47 143.41 C 234.33 143.26 234.26 143.06 234.27 142.86 C 234.35 142.59 234.52 142.36 234.74 142.19 C 235.14 141.81 235.52 141.40 235.86 140.97 C 236.20 140.53 236.50 140.07 236.77 139.58 C 236.88 139.34 237.06 139.14 237.29 139.01 C 237.49 138.93 237.72 138.95 237.91 139.07 C 238.04 139.12 238.16 139.19 238.27 139.27 C 238.35 139.33 238.41 139.41 238.44 139.51 C 238.47 139.62 238.47 139.73 238.44 139.84 C 238.38 140.01 238.31 140.18 238.21 140.33 Z M 239.47 144.89 C 239.24 144.92 239.02 144.84 238.86 144.67 C 238.76 144.50 238.70 144.31 238.71 144.11 C 238.70 143.90 238.75 143.70 238.86 143.52 C 239.02 143.36 239.25 143.28 239.47 143.31 L 246.00 143.31 C 246.32 143.31 246.53 143.38 246.62 143.53 C 246.72 143.71 246.76 143.91 246.75 144.11 C 246.76 144.31 246.72 144.50 246.62 144.67 C 246.53 144.82 246.32 144.89 246.00 144.89 L 244.44 144.89 L 244.44 149.62 C 244.49 150.12 244.33 150.62 244.00 151.00 C 243.65 151.30 243.21 151.48 242.75 151.50 C 241.93 151.52 241.11 151.39 240.34 151.11 C 240.04 151.04 239.77 150.89 239.57 150.66 C 239.47 150.45 239.47 150.20 239.57 149.99 C 239.64 149.76 239.80 149.57 240.01 149.47 C 240.30 149.40 240.60 149.43 240.86 149.57 C 241.19 149.70 241.52 149.81 241.86 149.90 C 242.10 149.96 242.35 149.99 242.60 149.97 C 242.68 149.95 242.77 149.92 242.84 149.88 C 242.91 149.83 242.95 149.75 242.94 149.66 L 242.94 144.92 Z M 246.06 140.70 C 246.07 140.90 246.01 141.10 245.90 141.26 C 245.74 141.43 245.52 141.51 245.29 141.48 L 240.29 141.48 C 240.07 141.51 239.84 141.43 239.69 141.26 C 239.48 140.91 239.48 140.46 239.69 140.11 C 239.85 139.96 240.07 139.89 240.29 139.92 L 245.29 139.92 C 245.51 139.89 245.73 139.96 245.90 140.11 C 246.03 140.29 246.08 140.50 246.06 140.72 Z" fill="#ffffff" fill-rule="nonzero" group-id="1" node-id="284" stroke="none" target-height="12.827576" target-width="12.79422" target-x="233.9682" target-y="138.93188"/>
    <path d="M 210.74 140.49 L 218.06 144.49 C 218.54 144.76 218.84 145.27 218.84 145.82 C 218.84 146.37 218.54 146.88 218.06 147.15 L 210.74 151.15 C 210.27 151.41 209.70 151.40 209.24 151.13 C 208.77 150.85 208.49 150.36 208.49 149.82 L 208.49 141.76 C 208.51 141.23 208.80 140.76 209.26 140.50 C 209.72 140.24 210.28 140.24 210.74 140.49 Z" fill="#ffffff" fill-rule="nonzero" group-id="1" node-id="286" stroke="none" target-height="11.170654" target-width="10.354126" target-x="208.49" target-y="140.23692"/>
  </g>
</svg>