<svg t="1690188274723" class="icon" viewBox="0 0 1024 1024" version="1.1" xmlns="http://www.w3.org/2000/svg" p-id="8117" width="200" height="200"><path d="M512 512m-512 0a512 512 0 1 0 1024 0 512 512 0 1 0-1024 0Z" fill="#E2223C" p-id="8118"></path><path d="M436.8 320c-25.6-38.4-59.2-65.6-102.4-67.2-60.8 0-116.8 67.2-158.4 156.8C120 528 84.8 686.4 83.2 771.2h6.4l88-1.6c1.6-297.6 105.6-480 158.4-478.4 17.6 0 36.8 16 56 48 19.2 32 36.8 78.4 49.6 140.8 14.4 68.8 24 155.2 24 259.2h24l75.2-1.6c1.6-297.6 70.4-446.4 120-446.4 14.4 0 32 9.6 49.6 28.8 54.4 60.8 113.6 216 112 451.2H931.2c1.6-121.6-52.8-379.2-158.4-476.8-27.2-25.6-56-40-89.6-40-94.4 0-144 148.8-163.2 219.2-4.8 22.4-8 35.2-8 35.2" fill="#F4EA2A" p-id="8119"></path></svg>