<svg t="1690423272034" class="icon" viewBox="0 0 1024 1024" version="1.1" xmlns="http://www.w3.org/2000/svg" p-id="3679" width="200" height="200"><path d="M915.748571 835.291429l-84.187428-148.041143v-298.422857c0-114.322286-85.942857-238.08-211.236572-283.428572C614.180571 44.690286 573.732571 0.512 520.630857 0.512c-52.955429 0-93.622857 44.178286-99.693714 104.813714-125.147429 45.348571-211.163429 169.106286-211.163429 283.428572v298.422857l-88.283428 155.282286a32.914286 32.914286 0 0 0 28.745143 49.444571h209.993142a164.059429 164.059429 0 0 0 160.329143 130.706286c78.994286 0 144.969143-56.173714 160.329143-130.706286h211.529143a33.060571 33.060571 0 0 0 23.332571-56.612571M520.630857 66.779429c11.922286 0 21.577143 9.069714 27.721143 22.528-9.142857-0.877714-18.066286-3.072-27.721143-3.072-9.581714 0-18.505143 2.121143-27.721143 3.072 6.217143-13.458286 15.798857-22.528 27.721143-22.528m0 889.636571a96.768 96.768 0 0 1-90.770286-64.512h181.540572a96.548571 96.548571 0 0 1-90.770286 64.512M207.140571 825.782857l64.512-113.517714a32.768 32.768 0 0 0 4.461715-16.384V388.754286c0-111.542857 104.521143-236.324571 244.589714-236.324572 139.995429 0 244.736 124.781714 244.736 236.324572v307.126857c0 5.778286 1.536 11.483429 4.315429 16.384l64.585142 113.517714H207.140571z m0 0" fill="#515151" p-id="3680" data-spm-anchor-id="a313x.7781069.0.i2" class="selected"></path></svg>